<svg width="131" height="25" viewBox="0 0 131 25" fill="none" xmlns="http://www.w3.org/2000/svg">
<path fill-rule="evenodd" clip-rule="evenodd" d="M51.3413 19.5561C46.5331 23.1101 39.5623 25.0001 33.5593 25.0001C25.1467 25.0001 17.5707 21.8853 11.8375 16.7005C11.3879 16.293 11.7889 15.7371 12.3299 16.0523C18.515 19.6573 26.1647 21.8285 34.0642 21.8285C39.3935 21.8285 45.252 20.7204 50.6425 18.4303C51.4555 18.0855 52.1374 18.967 51.3413 19.5561Z" fill="#999999"/>
<path fill-rule="evenodd" clip-rule="evenodd" d="M53.3425 17.2676C52.727 16.4791 49.2773 16.894 47.7272 17.0801C47.2576 17.1369 47.1847 16.7257 47.6078 16.4282C50.3601 14.4917 54.8705 15.0506 55.3946 15.6995C55.9223 16.3529 55.2552 20.8821 52.6768 23.0431C52.2795 23.3753 51.9021 23.1981 52.0783 22.7596C52.6592 21.3074 53.9579 18.0575 53.3425 17.2676Z" fill="#999999"/>
<path fill-rule="evenodd" clip-rule="evenodd" d="M47.8361 2.74914V0.868034C47.8375 0.581586 48.0528 0.391113 48.3122 0.391852L56.7315 0.391113C57.0005 0.391113 57.2172 0.586754 57.2172 0.865819V2.47893C57.2143 2.74988 56.9865 3.10277 56.5833 3.66311L52.2218 9.9C53.8405 9.86234 55.5528 10.1052 57.0241 10.9328C57.3558 11.1196 57.445 11.3965 57.4708 11.6674V13.6748C57.4708 13.9516 57.1686 14.2713 56.8501 14.1052C54.2592 12.7453 50.8206 12.5969 47.9547 14.1214C47.6621 14.2779 47.3562 13.9619 47.3562 13.6851V11.7767C47.3562 11.4718 47.3621 10.9491 47.6695 10.484L52.7216 3.22385L48.3225 3.22311C48.0535 3.22311 47.8375 3.03116 47.8361 2.74914Z" fill="#999999"/>
<path fill-rule="evenodd" clip-rule="evenodd" d="M17.1252 14.5003H14.5637C14.3197 14.4848 14.1251 14.3018 14.1052 14.067L14.1074 0.899993C14.1074 0.63717 14.3286 0.426764 14.602 0.426764L16.9873 0.426026C17.2365 0.438576 17.4369 0.627573 17.4524 0.868248V2.58693H17.5011C18.1225 0.924356 19.2937 0.148438 20.8719 0.148438C22.4736 0.148438 23.4783 0.924356 24.1955 2.58693C24.8169 0.924356 26.2277 0.148438 27.7336 0.148438C28.8098 0.148438 29.981 0.592136 30.6982 1.58953C31.5113 2.69841 31.3447 4.30488 31.3447 5.71792L31.3417 14.0271C31.3417 14.2892 31.1213 14.5003 30.8479 14.5003H28.2901C28.0321 14.4841 27.8302 14.2803 27.8302 14.0279L27.8294 7.04754C27.8294 6.49384 27.8773 5.10885 27.7572 4.58247C27.5663 3.69507 26.9928 3.44554 26.252 3.44554C25.6299 3.44554 24.9842 3.86118 24.721 4.52562C24.4579 5.19154 24.4822 6.29894 24.4822 7.04754V14.0271C24.4822 14.2892 24.2611 14.5003 23.9884 14.5003H21.4299C21.1726 14.4841 20.9699 14.2803 20.9699 14.0279L20.967 7.04754C20.967 5.57913 21.2065 3.41896 19.3895 3.41896C17.5483 3.41896 17.6205 5.52376 17.6205 7.04754L17.619 14.0271C17.619 14.2892 17.3979 14.5003 17.1252 14.5003Z" fill="#999999"/>
<path fill-rule="evenodd" clip-rule="evenodd" d="M64.4879 2.83647C62.5995 2.83647 62.4801 5.41228 62.4801 7.01949C62.4801 8.6267 62.4565 12.0626 64.4651 12.0626C66.4494 12.0626 66.5452 9.29188 66.5452 7.60198C66.5452 6.49384 66.4966 5.16349 66.1619 4.11072C65.8752 3.196 65.301 2.83647 64.4879 2.83647ZM64.4651 0.148438C68.2664 0.148438 70.3221 3.41896 70.3221 7.57467C70.3221 11.5908 68.0511 14.7779 64.4651 14.7779C60.7346 14.7779 58.7024 11.5082 58.7024 7.43587C58.7024 3.3348 60.7582 0.148438 64.4651 0.148438Z" fill="#999999"/>
<path fill-rule="evenodd" clip-rule="evenodd" d="M75.2528 14.5003H72.7002C72.4444 14.4841 72.241 14.2803 72.241 14.0279L72.2366 0.856436C72.2587 0.615022 72.471 0.426764 72.729 0.426764L75.1047 0.426026C75.3287 0.437838 75.513 0.589921 75.5602 0.794421V2.80841H75.6081C76.326 1.00704 77.3292 0.148438 79.0983 0.148438C80.246 0.148438 81.3701 0.564082 82.0873 1.70027C82.7566 2.75304 82.7566 4.52562 82.7566 5.80061V14.0862C82.7286 14.3195 82.5192 14.5003 82.2656 14.5003H79.6983C79.461 14.4856 79.27 14.3106 79.242 14.0862V6.93754C79.242 5.49644 79.4101 3.39017 77.6403 3.39017C77.0189 3.39017 76.4447 3.80581 76.158 4.44294C75.799 5.24691 75.7511 6.05014 75.7511 6.93754V14.0271C75.7467 14.2892 75.5255 14.5003 75.2528 14.5003Z" fill="#999999"/>
<path fill-rule="evenodd" clip-rule="evenodd" d="M43.7062 14.4681C43.5374 14.6202 43.2934 14.6306 43.1018 14.5279C42.2512 13.8199 42.0986 13.4929 41.6335 12.8181C40.2278 14.2526 39.232 14.683 37.4106 14.683C35.2546 14.683 33.5769 13.3497 33.5769 10.6845C33.5769 8.60187 34.7039 7.18587 36.3086 6.4919C37.6981 5.88061 39.6389 5.76987 41.1249 5.60302V5.27006C41.1249 4.65804 41.1728 3.93749 40.8131 3.40963C40.5013 2.93714 39.9028 2.74298 39.3757 2.74298C38.3983 2.74298 37.5307 3.24426 37.317 4.283C37.272 4.51408 37.104 4.74368 36.8725 4.75549L34.3892 4.48603C34.1799 4.43804 33.9469 4.26971 34.0066 3.9493C34.5705 0.974826 37.2226 0.047562 39.633 0.0224609H39.8231C41.0571 0.0379646 42.633 0.376829 43.5927 1.29893C44.8392 2.46539 44.7183 4.02018 44.7183 5.7145V9.71074C44.7183 10.9134 45.2173 11.4405 45.6854 12.088C45.8497 12.322 45.8859 12.5988 45.6772 12.7701C45.1539 13.2094 44.2244 14.0178 43.7136 14.474L43.7062 14.4681ZM41.1249 8.21354C41.1249 9.21315 41.1485 10.0459 40.6458 10.9348C40.2381 11.6561 39.591 12.1005 38.8723 12.1005C37.8905 12.1005 37.3155 11.3512 37.3155 10.2401C37.3155 8.05481 39.2718 7.65762 41.1249 7.65762V8.21354Z" fill="#999999"/>
<path fill-rule="evenodd" clip-rule="evenodd" d="M10.1301 14.4637C9.96052 14.6158 9.7158 14.6262 9.52489 14.5235C8.67353 13.8155 8.52095 13.4885 8.05658 12.8137C6.65018 14.2482 5.65508 14.6786 3.83369 14.6786C1.67765 14.6786 0 13.3453 0 10.6801C0 8.59747 1.12556 7.18147 2.73172 6.4875C4.12116 5.87622 6.06197 5.76548 7.54723 5.59863V5.26567C7.54723 4.65365 7.59588 3.9331 7.23618 3.40524C6.92438 2.93275 6.32511 2.73858 5.79882 2.73858C4.82141 2.73858 3.95237 3.23986 3.74008 4.27861C3.69585 4.50968 3.52706 4.73929 3.29487 4.7511L0.812291 4.48163C0.602216 4.43364 0.36929 4.26532 0.429733 3.94491C0.992146 0.970431 3.64499 0.0431675 6.05607 0.0180664H6.24624C7.48016 0.03357 9.05609 0.372435 10.0158 1.29453C11.2615 2.46099 11.1414 4.01578 11.1414 5.71011V9.70635C11.1414 10.909 11.6404 11.4361 12.1085 12.0836C12.2714 12.3176 12.3089 12.5945 12.1003 12.7657C11.577 13.205 10.6468 14.0134 10.136 14.4696L10.1301 14.4637ZM7.54723 8.20914C7.54723 9.20876 7.57156 10.0415 7.06812 10.9304C6.66123 11.6517 6.01405 12.0961 5.29464 12.0961C4.31281 12.0961 3.73787 11.3468 3.73787 10.2357C3.73787 8.05041 5.69489 7.65323 7.54723 7.65323V8.20914Z" fill="#999999"/>
<path fill-rule="evenodd" clip-rule="evenodd" d="M117.77 19.2231C117.77 18.8894 117.77 18.5897 117.77 18.256C117.77 17.9806 117.905 17.7909 118.192 17.8079C118.727 17.8839 119.484 17.96 120.021 17.8492C120.723 17.703 121.226 17.2047 121.524 16.5218C121.943 15.5606 122.221 14.7854 122.397 14.2767L117.068 1.05586C116.978 0.831422 116.952 0.415039 117.399 0.415039H119.262C119.617 0.415039 119.762 0.640949 119.841 0.862429L123.704 11.6013L127.392 0.862429C127.467 0.642425 127.618 0.415039 127.971 0.415039H129.727C130.172 0.415039 130.147 0.830683 130.058 1.05586L124.772 14.6894C124.088 16.5041 123.177 19.3944 121.125 19.8964C120.096 20.1659 118.798 20.0685 118.036 19.7488C117.844 19.6521 117.77 19.3937 117.77 19.2231Z" fill="#999999"/>
<path fill-rule="evenodd" clip-rule="evenodd" d="M115.285 13.6949C115.285 13.9407 115.084 14.1422 114.837 14.1422H113.523C113.24 14.1422 113.046 13.937 113.01 13.6949L112.878 12.7993C112.274 13.311 111.533 13.7606 110.73 14.0736C109.185 14.6745 107.404 14.7742 105.894 13.8455C104.803 13.1744 104.223 11.8625 104.223 10.5092C104.223 9.46237 104.545 8.42436 105.26 7.67059C106.213 6.64071 107.594 6.135 109.262 6.135C110.27 6.135 111.712 6.25386 112.761 6.59715V4.79504C112.761 2.96267 111.99 2.16977 109.96 2.16977C108.407 2.16977 107.22 2.40454 105.567 2.91911C105.303 2.92797 105.148 2.72642 105.148 2.48058V1.45291C105.148 1.20633 105.358 0.967868 105.586 0.895518C106.766 0.380208 108.437 0.0590614 110.215 0C112.531 0 115.285 0.523431 115.285 4.09221V13.6949ZM112.761 11.0637V8.34463C111.879 8.10322 110.42 8.00281 109.856 8.00281C108.964 8.00281 107.987 8.21396 107.477 8.76397C107.096 9.16706 106.923 9.74586 106.923 10.3055C106.923 11.029 107.173 11.7547 107.757 12.1135C108.435 12.5749 109.487 12.5188 110.476 12.2375C111.426 11.9673 112.318 11.4896 112.761 11.0637Z" fill="#999999"/>
<path fill-rule="evenodd" clip-rule="evenodd" d="M95.9176 2.21055C98.8321 2.21055 99.6259 4.50583 99.6259 7.13406C99.6422 8.9059 99.3171 10.4858 98.4009 11.3902C97.7154 12.0672 96.9495 12.2517 95.7967 12.2517C94.7706 12.2517 93.421 11.7157 92.4126 10.9694V3.45453C93.4623 2.64687 94.8016 2.21055 95.9176 2.21055ZM91.9659 19.6957H90.2065C89.9603 19.6957 89.759 19.4941 89.759 19.2483C89.759 13.128 89.759 7.00707 89.759 0.886839C89.759 0.640996 89.9603 0.439449 90.2065 0.439449H91.5531C91.8362 0.439449 92.0301 0.644687 92.0662 0.886839L92.2077 1.8488C93.4689 0.727373 95.0927 0.00830078 96.6399 0.00830078C100.973 0.00830078 102.398 3.58447 102.398 7.30312C102.398 11.2816 100.219 14.4783 96.5323 14.4783C94.98 14.4783 93.5286 13.9047 92.4126 12.908V19.2483C92.4126 19.4941 92.2114 19.6957 91.9659 19.6957Z" fill="#999999"/>
</svg>
