<svg width="101" height="25" viewBox="0 0 101 25" fill="none" xmlns="http://www.w3.org/2000/svg">
<path d="M25.9845 9.88234C26.1975 9.98021 26.3885 10.1203 26.5459 10.2942C26.7034 10.468 26.824 10.672 26.9005 10.8939C26.9771 11.1157 27.0079 11.3508 26.9912 11.5849C26.9745 11.819 26.9106 12.0473 26.8034 12.256C26.3184 13.8369 25.917 15.4434 25.4807 17.0392C25.447 17.4427 25.3297 17.8348 25.1362 18.1903C24.9427 18.5458 24.6773 18.857 24.357 19.104C24.0366 19.351 23.6683 19.5283 23.2757 19.6247C22.883 19.721 22.4746 19.7343 22.0765 19.6636C15.3745 19.665 8.6726 19.6702 1.97067 19.6792C1.43905 19.6807 1.25073 19.631 1.41813 19.0356C3.14028 12.9104 4.84688 6.78093 6.53793 0.647036C6.54859 0.55034 6.57862 0.456791 6.62621 0.371986C6.6738 0.287181 6.73799 0.21286 6.81492 0.153472C6.89185 0.0940845 6.97996 0.0508487 7.07396 0.0263506C7.16796 0.00185252 7.26593 -0.00340393 7.362 0.0108951C14.2635 0.0285071 21.1651 0.0225031 28.0667 0.0331265C28.3168 -0.019927 28.5766 -0.00283464 28.8177 0.0825265C29.0587 0.167888 29.2715 0.318205 29.4327 0.516927C29.5939 0.715648 29.6972 0.95507 29.7313 1.20883C29.7653 1.46258 29.7288 1.72083 29.6258 1.95514C29.106 4.00128 28.5362 6.03545 27.9443 8.0621C27.7857 8.49972 27.5251 8.89314 27.1843 9.20971C26.8434 9.52628 26.4321 9.75686 25.9845 9.88234V9.88234ZM16.7335 3.87852C14.5942 3.87852 12.4547 3.89551 10.3159 3.86751C10.199 3.84431 10.0785 3.84691 9.96266 3.87514C9.84686 3.90336 9.7386 3.95653 9.64542 4.03094C9.55224 4.10535 9.47637 4.19922 9.42311 4.30599C9.36985 4.41277 9.34047 4.5299 9.33702 4.64921C9.15206 5.48499 8.91894 6.30934 8.63882 7.11812C8.46161 7.6713 8.48844 7.95813 9.20172 7.95434C13.5086 7.93138 17.8157 7.95209 22.1226 7.93594C22.7283 7.94336 23.317 7.73529 23.7838 7.34877C24.2507 6.96225 24.5656 6.42236 24.6723 5.82516C24.7769 5.59323 24.8162 5.33703 24.7857 5.08436C24.7552 4.83168 24.6563 4.59219 24.4995 4.39189C24.3427 4.19158 24.1342 4.0381 23.8965 3.94812C23.6588 3.85814 23.401 3.83509 23.1512 3.88147C21.012 3.87493 18.8727 3.87962 16.7335 3.87852ZM13.4829 15.8513C15.5907 15.8513 17.6985 15.8514 19.8063 15.8516C20.2793 15.8726 20.749 15.7642 21.165 15.5379C21.581 15.3116 21.9276 14.976 22.1675 14.5672C23.0385 13.1528 22.4496 11.7779 20.9571 11.7722C16.6561 11.7556 12.355 11.7722 8.05397 11.7571C7.95677 11.741 7.85736 11.7443 7.76146 11.7669C7.66556 11.7895 7.57508 11.8309 7.49525 11.8887C7.41541 11.9465 7.3478 12.0196 7.29631 12.1037C7.24483 12.1878 7.21049 12.2813 7.19528 12.3788C6.96991 13.2622 6.7662 14.1558 6.46322 15.0132C6.19206 15.7806 6.50567 15.8677 7.15959 15.8592C9.26704 15.832 11.3751 15.849 13.4829 15.8512V15.8513Z" fill="#999999"/>
<path d="M82.4978 10.6271C81.841 11.2119 81.1821 11.7814 80.5421 12.3714C78.0891 14.6327 75.6414 16.8997 73.199 19.1726C72.7908 19.5543 72.5838 19.6167 72.2649 19.0559C70.46 15.8819 68.6168 12.7297 66.7844 9.5714C66.7242 9.48923 66.6573 9.41214 66.5844 9.34092C66.3059 9.6938 66.1343 10.1194 66.0901 10.567C65.3222 13.3147 64.573 16.0675 63.8425 18.8256C63.8382 18.9513 63.8066 19.0747 63.7501 19.1871C63.6935 19.2995 63.6133 19.3983 63.5149 19.4766C63.4166 19.5549 63.3024 19.611 63.1803 19.6408C63.0583 19.6707 62.9312 19.6737 62.8078 19.6496C61.9857 19.5856 61.1549 19.6283 60.328 19.6388C59.9461 19.6436 59.7365 19.5881 59.8698 19.1066C61.5895 12.8915 63.3014 6.67434 65.0057 0.455007C65.0457 0.386447 65.0952 0.323995 65.1529 0.269568C65.4865 0.568532 65.7548 0.933338 65.9409 1.34109C68.2599 5.20445 70.5729 9.07147 72.8798 12.9422C73.3982 13.8097 73.3841 13.791 74.163 13.1253C78.3452 9.55112 82.5324 5.98265 86.7244 2.41993C87.5648 1.70397 88.4037 0.986078 89.3212 0.202637C89.388 0.618841 89.3162 1.04549 89.1169 1.41676C87.5283 7.25277 85.913 13.0815 84.3324 18.9196C84.3255 19.0311 84.2951 19.1398 84.2431 19.2386C84.1912 19.3374 84.119 19.4241 84.0311 19.4929C83.9433 19.5617 83.8419 19.6111 83.7337 19.6378C83.6254 19.6645 83.5127 19.6679 83.4031 19.6478C82.6056 19.6036 81.8063 19.6028 81.0087 19.6451C80.3241 19.6835 80.2706 19.4308 80.4374 18.8427C81.1615 16.2907 81.8455 13.7273 82.5447 11.1682C82.5937 11.0842 82.6154 10.9871 82.607 10.8902C82.5986 10.7933 82.5604 10.7014 82.4978 10.6271Z" fill="#999999"/>
<path d="M42.2853 7.92976C44.5382 7.92922 46.7922 7.88669 49.0432 7.95206C49.1889 7.97234 49.3373 7.96231 49.4789 7.92257C49.6206 7.88284 49.7526 7.81425 49.8666 7.72112C49.9806 7.62798 50.0743 7.51229 50.1416 7.38128C50.209 7.25026 50.2486 7.10674 50.2581 6.95968C50.7859 4.94631 51.3517 2.94248 51.8473 0.921325C51.8526 0.780885 51.8886 0.643328 51.953 0.518422C52.0173 0.393516 52.1083 0.284327 52.2195 0.198615C52.3307 0.112902 52.4593 0.0527665 52.5964 0.0224838C52.7334 -0.00779895 52.8754 -0.00748799 53.0123 0.0233954C53.7522 0.0751499 54.4948 0.0757216 55.2349 0.0251037C55.834 -0.0054411 55.9716 0.168732 55.8039 0.764668C54.9536 3.78595 54.1405 6.8177 53.315 9.84597C52.52 12.7622 51.7077 15.6738 50.9437 18.5981C50.9398 18.7662 50.8983 18.9313 50.8223 19.0813C50.7463 19.2312 50.6377 19.3622 50.5044 19.4645C50.3712 19.5669 50.2168 19.638 50.0525 19.6727C49.8882 19.7074 49.7182 19.7047 49.5551 19.665C48.8447 19.6001 48.13 19.5973 47.4191 19.6565C46.8462 19.6825 46.7508 19.4944 46.9077 18.9545C47.5206 16.845 48.078 14.7195 48.6841 12.608C48.8615 11.9898 48.7804 11.7409 48.0531 11.7453C43.4621 11.7727 38.8709 11.7736 34.2796 11.7482C34.1495 11.7277 34.0165 11.7348 33.8893 11.7689C33.7621 11.8031 33.6435 11.8636 33.541 11.9464C33.4386 12.0293 33.3546 12.1328 33.2945 12.2501C33.2344 12.3675 33.1996 12.4962 33.1922 12.6279C32.66 14.7582 32.0298 16.8637 31.4748 18.9886C31.4657 19.0934 31.4346 19.1952 31.3835 19.2872C31.3325 19.3792 31.2626 19.4593 31.1785 19.5224C31.0944 19.5855 30.9979 19.6301 30.8954 19.6533C30.7929 19.6765 30.6867 19.6778 30.5836 19.6571C29.7863 19.6104 28.9869 19.6109 28.1896 19.6585C27.3561 19.7162 27.4934 19.2834 27.6363 18.7646C28.5378 15.4909 29.4338 12.2158 30.3243 8.93917C31.0755 6.18694 31.8314 3.43596 32.5678 0.679779C32.5733 0.581683 32.5992 0.485823 32.644 0.398375C32.6887 0.310927 32.7512 0.23383 32.8275 0.172055C32.9037 0.110281 32.9921 0.0651993 33.0868 0.0397127C33.1816 0.014226 33.2806 0.00890077 33.3775 0.024081C34.2309 0.0665144 35.0891 0.0607707 35.9431 0.0245828C36.5374 -0.000600115 36.6017 0.219578 36.456 0.737353C35.8458 2.90608 35.2889 5.08996 34.6635 7.25413C34.4971 7.83016 34.6393 7.94294 35.1845 7.93862C37.5514 7.91934 39.9185 7.93031 42.2853 7.92976Z" fill="#999999"/>
<path d="M60.5386 0.0861817C60.8235 0.0864896 61.1084 0.086576 61.3933 0.0864421C62.5275 0.0852372 62.5346 0.0871284 62.2455 1.13752C60.6579 6.90593 59.0673 12.6735 57.4738 18.4402C57.1162 19.7322 57.1009 19.7281 55.7771 19.7295C55.1503 19.7301 54.5227 19.7103 53.8969 19.7359C53.3338 19.759 53.2229 19.5721 53.3762 19.0239C54.8889 13.6155 56.3876 8.20319 57.8724 2.78698C58.0624 2.21999 58.2152 1.64115 58.3298 1.05418C58.323 0.897103 58.3541 0.740697 58.4205 0.598219C58.4868 0.45574 58.5865 0.331388 58.7111 0.235699C58.8357 0.140011 58.9814 0.0758042 59.136 0.0485255C59.2906 0.0212468 59.4495 0.0316979 59.5992 0.0789921C59.9118 0.102161 60.2256 0.104563 60.5386 0.0861817V0.0861817Z" fill="#999999"/>
<path d="M91.7103 15.6378L87.5166 19.5446L87.3796 19.436C87.8606 17.6544 88.3349 15.871 88.8238 14.0916C90.0389 9.669 91.2584 5.24756 92.4823 0.827321C92.4742 0.713381 92.4983 0.599464 92.552 0.498657C92.6056 0.397851 92.6866 0.314246 92.7855 0.257453C93.0756 0.207408 93.073 0.544263 93.1731 0.729681C93.7944 1.88079 94.2671 3.10995 94.9936 4.20559C95.6882 5.88969 96.4769 7.53335 97.3558 9.12878C97.4288 9.23753 97.4793 9.35985 97.5043 9.4885C97.5293 9.61715 97.5283 9.74951 97.5012 9.87775C97.4742 10.006 97.4218 10.1275 97.3471 10.2351C97.2723 10.3426 97.1768 10.4341 97.0661 10.504C95.2593 12.1921 93.4922 13.9229 91.7103 15.6378Z" fill="#999999"/>
<path d="M91.7107 15.6386C93.4926 13.9237 95.2596 12.193 97.0665 10.5049C97.1771 10.435 97.2727 10.3435 97.3474 10.2359C97.4222 10.1283 97.4746 10.0068 97.5016 9.8786C97.5286 9.75037 97.5297 9.618 97.5047 9.48936C97.4797 9.36071 97.4292 9.23839 97.3562 9.12964C96.4773 7.53421 95.6886 5.89055 94.9939 4.20644L96.2418 0.00439453C96.7588 1.00739 97.1898 1.82698 97.6057 2.65412C98.6558 4.74219 99.6763 6.84563 100.758 8.91727C100.853 9.05181 100.92 9.20442 100.955 9.36577C100.989 9.52711 100.99 9.69382 100.958 9.85569C100.926 10.0176 100.862 10.1712 100.769 10.3072C100.675 10.4433 100.555 10.5588 100.416 10.6469C97.4462 13.398 94.5404 16.2184 91.6091 19.0113C91.4233 19.2561 91.1695 19.4403 90.8794 19.5409C91.2541 18.2629 91.532 16.9585 91.7107 15.6386V15.6386Z" fill="#999999"/>
<path d="M58.0555 22.1589C57.9854 22.1805 57.9105 22.1809 57.8402 22.1602C57.7699 22.1394 57.7073 22.0984 57.6602 22.0422C57.8318 21.946 57.9798 21.9299 58.0555 22.1589Z" fill="#999999"/>
<path d="M0.842478 21.9674C0.849939 21.9442 0.864192 21.9237 0.883391 21.9087C0.90259 21.8937 0.925853 21.8848 0.950169 21.8831H1.96053C2.0663 21.8659 2.17472 21.8762 2.27534 21.9131C2.37596 21.95 2.4654 22.0123 2.53504 22.0939C2.60468 22.1754 2.65217 22.2736 2.67295 22.3789C2.69373 22.4842 2.68709 22.593 2.65368 22.695C2.59315 22.8519 2.50108 22.9946 2.38319 23.1144C2.2653 23.2341 2.12411 23.3284 1.96835 23.3912C2.03966 23.4136 2.1058 23.45 2.16293 23.4983C2.22006 23.5466 2.26703 23.6057 2.3011 23.6723C2.33518 23.739 2.35568 23.8117 2.36142 23.8863C2.36716 23.961 2.35801 24.036 2.33452 24.107C2.24709 24.3564 2.08399 24.5722 1.86806 24.7241C1.65213 24.876 1.39417 24.9565 1.1303 24.9543H0.0631755C0.0529904 24.9546 0.0428906 24.9523 0.0337874 24.9477C0.0246843 24.9432 0.0168646 24.9364 0.0110346 24.928C0.00520463 24.9196 0.00154787 24.9099 0.00039436 24.8998C-0.000759153 24.8897 0.000627469 24.8794 0.00442807 24.8699L0.842478 21.9674ZM1.23018 24.4365C1.34641 24.4308 1.45807 24.3894 1.54989 24.3178C1.64171 24.2462 1.70922 24.1479 1.74319 24.0364C1.75562 23.9875 1.75582 23.9362 1.74378 23.8872C1.73174 23.8381 1.70783 23.7928 1.67416 23.7552C1.64049 23.7176 1.59809 23.6889 1.55071 23.6716C1.50333 23.6543 1.45242 23.6489 1.40249 23.656H0.92276L0.697593 24.4365H1.23018ZM1.53562 23.1735C1.64872 23.1676 1.75707 23.1261 1.84529 23.055C1.93352 22.9839 1.99713 22.8868 2.0271 22.7774C2.04688 22.7348 2.05493 22.6877 2.05042 22.6409C2.04591 22.5942 2.02899 22.5495 2.00143 22.5114C1.97387 22.4734 1.93666 22.4435 1.89366 22.4247C1.85066 22.406 1.80344 22.3991 1.75688 22.4047H1.28501L1.06179 23.1735H1.53564L1.53562 23.1735Z" fill="#999999"/>
<path d="M4.739 21.9672C4.74698 21.9443 4.76137 21.9241 4.78047 21.9092C4.79956 21.8942 4.82255 21.8851 4.84669 21.8829H5.25788C5.26806 21.8824 5.27816 21.8846 5.28725 21.8893C5.29633 21.8939 5.30408 21.9007 5.30978 21.9092C5.31547 21.9176 5.3189 21.9274 5.31976 21.9375C5.32062 21.9477 5.31886 21.9579 5.31467 21.9672L4.97983 23.1282H6.41705L6.75189 21.9672C6.75952 21.9437 6.77408 21.9231 6.79365 21.908C6.81323 21.893 6.8369 21.8842 6.86155 21.8829H7.26687C7.27691 21.8828 7.28681 21.8853 7.29569 21.89C7.30457 21.8947 7.31215 21.9015 7.31777 21.9099C7.32338 21.9182 7.32686 21.9278 7.32788 21.9378C7.32891 21.9478 7.32745 21.9579 7.32365 21.9672L6.48554 24.8697C6.47824 24.8927 6.46429 24.913 6.44547 24.928C6.42665 24.943 6.40379 24.9521 6.37981 24.9541H5.97453C5.96421 24.9546 5.95392 24.9525 5.9446 24.9481C5.93528 24.9436 5.92723 24.9369 5.92119 24.9285C5.91515 24.9201 5.91131 24.9103 5.91003 24.9C5.90874 24.8898 5.91005 24.8793 5.91384 24.8697L6.26432 23.6597H4.82712L4.47664 24.8697C4.46986 24.893 4.45607 24.9136 4.43714 24.9287C4.41821 24.9438 4.39507 24.9526 4.37091 24.9541H3.95969C3.94964 24.954 3.93974 24.9515 3.93084 24.9468C3.92193 24.9421 3.91428 24.9354 3.90852 24.9271C3.90277 24.9188 3.89908 24.9093 3.89776 24.8993C3.89644 24.8893 3.89753 24.8792 3.90095 24.8697L4.739 21.9672Z" fill="#999999"/>
<path d="M8.0718 24.8389L10.2942 21.8894C10.3039 21.8748 10.317 21.8627 10.3323 21.8542C10.3477 21.8457 10.3648 21.8409 10.3823 21.8404H10.4293C10.4365 21.8393 10.4437 21.8398 10.4507 21.8418C10.4576 21.8438 10.464 21.8472 10.4696 21.8518C10.4751 21.8564 10.4796 21.8621 10.4828 21.8686C10.486 21.8751 10.4878 21.8822 10.4881 21.8894L10.9933 24.8389C10.9945 24.8539 10.9925 24.869 10.9875 24.8832C10.9825 24.8974 10.9746 24.9103 10.9642 24.9212C10.9539 24.9322 10.9414 24.9408 10.9275 24.9465C10.9136 24.9523 10.8987 24.955 10.8837 24.9546H10.5018C10.4891 24.9566 10.4762 24.9558 10.4639 24.9522C10.4515 24.9487 10.4402 24.9425 10.4305 24.9341C10.4208 24.9257 10.413 24.9153 10.4078 24.9036C10.4025 24.8919 10.3998 24.8792 10.3999 24.8664L10.3197 24.3918H8.99992L8.64944 24.8664C8.63316 24.8925 8.61071 24.9142 8.58408 24.9296C8.55745 24.945 8.52744 24.9536 8.49671 24.9546H8.11293C8.04833 24.9546 8.02874 24.8978 8.0718 24.8389ZM10.2453 23.9074L10.0827 22.9406H10.069L9.36019 23.9074H10.2453L10.2453 23.9074Z" fill="#999999"/>
<path d="M13.4018 21.9677C13.4087 21.9442 13.4228 21.9234 13.4421 21.9083C13.4614 21.8931 13.485 21.8844 13.5095 21.8834H14.7685C14.8847 21.8756 15.0009 21.8973 15.1065 21.9466C15.212 21.9959 15.3034 22.0711 15.3722 22.1652C15.4409 22.2593 15.4848 22.3693 15.4998 22.4849C15.5147 22.6006 15.5003 22.7181 15.4577 22.8267C15.3845 23.0348 15.2642 23.2231 15.1063 23.3768C14.9483 23.5306 14.757 23.6457 14.5472 23.7131L14.8311 24.8251C14.8334 24.8413 14.8322 24.8578 14.8275 24.8735C14.8228 24.8891 14.8148 24.9036 14.804 24.9159C14.7932 24.9282 14.7799 24.938 14.765 24.9447C14.7501 24.9513 14.7339 24.9547 14.7176 24.9545H14.2555C14.2427 24.9559 14.2298 24.9527 14.219 24.9456C14.2083 24.9384 14.2004 24.9277 14.1968 24.9153L13.9461 23.7524H13.4566L13.1335 24.8702C13.1258 24.8933 13.1115 24.9136 13.0923 24.9286C13.0732 24.9436 13.0501 24.9526 13.0258 24.9545H12.6225C12.6121 24.9553 12.6017 24.9534 12.5923 24.9489C12.5829 24.9445 12.5747 24.9378 12.5686 24.9293C12.5626 24.9209 12.5587 24.911 12.5575 24.9007C12.5563 24.8903 12.5578 24.8798 12.5618 24.8702L13.4018 21.9677ZM14.3142 23.2836C14.4425 23.2739 14.565 23.2262 14.6661 23.1466C14.7672 23.067 14.8424 22.959 14.8821 22.8365C14.9002 22.7871 14.9057 22.7341 14.8983 22.682C14.8908 22.63 14.8705 22.5807 14.8392 22.5384C14.8079 22.4962 14.7667 22.4625 14.7191 22.4402C14.6716 22.4179 14.6192 22.4079 14.5668 22.4109H13.8502L13.5975 23.2836H14.3142Z" fill="#999999"/>
<path d="M16.2798 24.8389L18.5022 21.8894C18.5119 21.8748 18.525 21.8627 18.5403 21.8542C18.5557 21.8457 18.5728 21.8409 18.5903 21.8404H18.6373C18.6444 21.8393 18.6517 21.8398 18.6587 21.8418C18.6656 21.8438 18.672 21.8472 18.6776 21.8518C18.6831 21.8564 18.6876 21.8621 18.6908 21.8686C18.694 21.8751 18.6958 21.8822 18.6961 21.8894L19.2013 24.8389C19.2025 24.8539 19.2005 24.869 19.1955 24.8832C19.1905 24.8974 19.1826 24.9103 19.1722 24.9212C19.1619 24.9322 19.1494 24.9408 19.1355 24.9465C19.1216 24.9523 19.1067 24.955 19.0917 24.9546H18.7098C18.6971 24.9566 18.6842 24.9558 18.6719 24.9522C18.6595 24.9487 18.6481 24.9425 18.6385 24.9341C18.6288 24.9257 18.621 24.9153 18.6158 24.9036C18.6105 24.8919 18.6078 24.8792 18.6079 24.8664L18.5277 24.3918H17.208L16.8575 24.8664C16.8413 24.8925 16.8188 24.9142 16.7922 24.9296C16.7655 24.945 16.7355 24.9536 16.7048 24.9546H16.321C16.2563 24.9546 16.2368 24.8978 16.2798 24.8389ZM18.4533 23.9074L18.2907 22.9406H18.277L17.5681 23.9074H18.4532L18.4533 23.9074Z" fill="#999999"/>
<path d="M21.7314 22.4105H21.0578C21.0475 22.4112 21.0372 22.4092 21.0279 22.4047C21.0186 22.4002 21.0106 22.3934 21.0047 22.3849C20.9988 22.3764 20.9952 22.3665 20.9942 22.3563C20.9932 22.346 20.9949 22.3356 20.9991 22.3261L21.1009 21.9672C21.1085 21.9437 21.1231 21.9231 21.1426 21.908C21.1622 21.893 21.1859 21.8842 21.2105 21.8829H23.1354C23.1457 21.8823 23.156 21.8844 23.1653 21.8889C23.1746 21.8933 23.1827 21.9001 23.1887 21.9085C23.1948 21.9169 23.1986 21.9267 23.1999 21.9369C23.2012 21.9472 23.1999 21.9576 23.1961 21.9672L23.0923 22.3261C23.0847 22.3496 23.0701 22.3703 23.0505 22.3853C23.031 22.4004 23.0073 22.4092 22.9826 22.4105H22.309L21.5982 24.8697C21.5908 24.893 21.5765 24.9134 21.5573 24.9285C21.5381 24.9435 21.5149 24.9524 21.4905 24.9541H21.0813C21.0711 24.9543 21.061 24.952 21.0519 24.9474C21.0428 24.9428 21.0349 24.9361 21.0289 24.9278C21.023 24.9195 21.0191 24.9099 21.0177 24.8998C21.0162 24.8897 21.0172 24.8794 21.0206 24.8697L21.7314 22.4105Z" fill="#999999"/>
<path d="M26.9907 21.9676C26.9982 21.9444 27.0125 21.9239 27.0316 21.9089C27.0508 21.8939 27.0741 21.885 27.0984 21.8833H27.5077C27.5178 21.8832 27.5278 21.8856 27.5368 21.8902C27.5458 21.8949 27.5535 21.9016 27.5593 21.9099C27.5651 21.9182 27.5687 21.9278 27.57 21.9379C27.5712 21.948 27.57 21.9582 27.5664 21.9676L26.7283 24.8701C26.7206 24.8932 26.7063 24.9135 26.6871 24.9285C26.668 24.9435 26.6448 24.9525 26.6206 24.9545H26.2114C26.2011 24.9548 26.1909 24.9527 26.1817 24.9482C26.1725 24.9436 26.1645 24.9369 26.1585 24.9286C26.1525 24.9202 26.1486 24.9105 26.1473 24.9003C26.1459 24.8901 26.1471 24.8798 26.1507 24.8701L26.9907 21.9676Z" fill="#999999"/>
<path d="M29.5654 21.9188C29.5733 21.8963 29.5878 21.8767 29.607 21.8627C29.6263 21.8487 29.6493 21.8409 29.6731 21.8403H29.7828L31.0536 23.778H31.0576L31.5804 21.9678C31.588 21.9443 31.6026 21.9237 31.6221 21.9086C31.6417 21.8936 31.6654 21.8848 31.69 21.8835H32.0953C32.1054 21.8834 32.1153 21.8859 32.1242 21.8906C32.133 21.8953 32.1406 21.9021 32.1462 21.9105C32.1519 21.9188 32.1553 21.9284 32.1564 21.9384C32.1574 21.9484 32.1559 21.9585 32.1521 21.9678L31.3004 24.9174C31.293 24.9399 31.2789 24.9597 31.26 24.9741C31.2411 24.9884 31.2183 24.9967 31.1947 24.9977H31.0888L29.8298 22.9855H29.8257L29.2794 24.8702C29.2722 24.8935 29.2581 24.9142 29.2388 24.9292C29.2196 24.9443 29.1962 24.9531 29.1718 24.9545H28.7724C28.7621 24.9549 28.752 24.9527 28.7427 24.9482C28.7335 24.9437 28.7255 24.9369 28.7195 24.9286C28.7135 24.9202 28.7097 24.9105 28.7083 24.9004C28.707 24.8902 28.7081 24.8798 28.7117 24.8702L29.5654 21.9188Z" fill="#999999"/>
<path d="M34.4155 22.4105H33.7419C33.7316 22.4112 33.7213 22.4092 33.712 22.4047C33.7027 22.4002 33.6947 22.3934 33.6888 22.3849C33.6829 22.3764 33.6792 22.3665 33.6783 22.3563C33.6773 22.346 33.679 22.3356 33.6831 22.3261L33.785 21.9672C33.7926 21.9437 33.8071 21.9231 33.8267 21.908C33.8463 21.893 33.87 21.8842 33.8946 21.8829H35.8195C35.8298 21.8823 35.8401 21.8844 35.8494 21.8889C35.8587 21.8933 35.8668 21.9001 35.8728 21.9085C35.8788 21.9169 35.8827 21.9267 35.884 21.9369C35.8853 21.9472 35.8839 21.9576 35.8802 21.9672L35.7764 22.3261C35.7688 22.3496 35.7542 22.3703 35.7346 22.3853C35.715 22.4004 35.6914 22.4092 35.6667 22.4105H34.9931L34.2824 24.8697C34.2749 24.893 34.2606 24.9134 34.2414 24.9285C34.2222 24.9435 34.199 24.9524 34.1747 24.9541H33.7654C33.7552 24.9543 33.7451 24.952 33.736 24.9474C33.7269 24.9428 33.719 24.9361 33.713 24.9278C33.7071 24.9195 33.7032 24.9099 33.7018 24.8998C33.7003 24.8897 33.7013 24.8794 33.7047 24.8697L34.4155 22.4105Z" fill="#999999"/>
<path d="M37.517 21.9672C37.5245 21.944 37.5388 21.9235 37.558 21.9085C37.5772 21.8935 37.6004 21.8846 37.6247 21.8829H39.4183C39.4286 21.8823 39.4389 21.8844 39.4482 21.8889C39.4576 21.8933 39.4656 21.9001 39.4716 21.9085C39.4777 21.9169 39.4815 21.9266 39.4828 21.9369C39.4841 21.9472 39.4828 21.9576 39.479 21.9672L39.3752 22.3261C39.3676 22.3496 39.353 22.3703 39.3335 22.3853C39.3139 22.4004 39.2902 22.4092 39.2656 22.4105H37.9615L37.754 23.1282H38.8427C38.8528 23.1282 38.8628 23.1307 38.8719 23.1353C38.8809 23.1399 38.8887 23.1466 38.8946 23.1549C38.9005 23.1631 38.9044 23.1726 38.906 23.1827C38.9075 23.1927 38.9066 23.203 38.9034 23.2126L38.7977 23.5774C38.7903 23.6005 38.776 23.6208 38.7567 23.6355C38.7375 23.6502 38.7142 23.6587 38.69 23.6597H37.6012L37.378 24.4285H38.6821C38.6922 24.4278 38.7024 24.4297 38.7116 24.434C38.7208 24.4383 38.7288 24.4448 38.7349 24.453C38.7409 24.4612 38.7448 24.4708 38.7462 24.4809C38.7475 24.491 38.7464 24.5013 38.7428 24.5108L38.639 24.8697C38.6318 24.8931 38.6176 24.9137 38.5984 24.9288C38.5791 24.9439 38.5557 24.9527 38.5313 24.954H36.7377C36.7276 24.9543 36.7175 24.9521 36.7083 24.9475C36.6992 24.9429 36.6914 24.9361 36.6856 24.9278C36.6798 24.9194 36.6761 24.9097 36.675 24.8996C36.6738 24.8894 36.6752 24.8792 36.679 24.8697L37.517 21.9672Z" fill="#999999"/>
<path d="M41.2844 21.9677C41.2918 21.9445 41.3061 21.924 41.3253 21.909C41.3445 21.8939 41.3677 21.885 41.3921 21.8834H42.6531C42.7692 21.8756 42.8853 21.8975 42.9907 21.9468C43.0962 21.9961 43.1874 22.0714 43.256 22.1655C43.3246 22.2596 43.3683 22.3696 43.383 22.4852C43.3978 22.6008 43.3831 22.7183 43.3403 22.8267C43.2673 23.0342 43.1476 23.2221 42.9903 23.3759C42.8331 23.5296 42.6427 23.645 42.4337 23.7131L42.7157 24.8251C42.7182 24.8411 42.7171 24.8576 42.7127 24.8732C42.7082 24.8889 42.7004 24.9033 42.6898 24.9157C42.6791 24.928 42.666 24.9378 42.6512 24.9445C42.6364 24.9512 42.6203 24.9546 42.6041 24.9545H42.14C42.127 24.9555 42.1141 24.9522 42.1031 24.9451C42.0922 24.938 42.0838 24.9276 42.0794 24.9153L41.8307 23.7523H41.3412L41.0181 24.8702C41.0108 24.8931 40.9968 24.9134 40.978 24.9284C40.9592 24.9435 40.9363 24.9525 40.9124 24.9545H40.5051C40.4949 24.9548 40.4848 24.9526 40.4757 24.948C40.4666 24.9434 40.4588 24.9366 40.4529 24.9283C40.4471 24.9199 40.4434 24.9102 40.4423 24.9001C40.4411 24.8899 40.4425 24.8796 40.4463 24.8702L41.2844 21.9677ZM42.2007 23.2836C42.3284 23.2735 42.4501 23.2256 42.5506 23.146C42.651 23.0663 42.7255 22.9586 42.7646 22.8365C42.7829 22.7873 42.7887 22.7343 42.7814 22.6823C42.7741 22.6304 42.7541 22.581 42.723 22.5388C42.6919 22.4965 42.6507 22.4627 42.6033 22.4404C42.5559 22.4181 42.5036 22.4079 42.4513 22.4109H41.7328L41.4801 23.2836H42.2008H42.2007Z" fill="#999999"/>
<path d="M45.396 21.9672C45.4034 21.944 45.4177 21.9235 45.4369 21.9085C45.4561 21.8935 45.4793 21.8846 45.5037 21.8829H47.2972C47.3075 21.8823 47.3178 21.8844 47.3272 21.8889C47.3365 21.8933 47.3445 21.9001 47.3506 21.9085C47.3566 21.9169 47.3605 21.9266 47.3617 21.9369C47.363 21.9472 47.3617 21.9576 47.3579 21.9672L47.2541 22.3261C47.2465 22.3496 47.232 22.3703 47.2124 22.3853C47.1928 22.4004 47.1691 22.4092 47.1445 22.4105H45.8404L45.6035 23.2342H46.6923C46.7024 23.2341 46.7124 23.2364 46.7214 23.2411C46.7304 23.2457 46.7381 23.2525 46.7439 23.2608C46.7497 23.2691 46.7534 23.2787 46.7546 23.2888C46.7558 23.2988 46.7546 23.309 46.751 23.3185L46.6472 23.6774C46.6395 23.7005 46.6252 23.7208 46.606 23.7358C46.5869 23.7508 46.5638 23.7598 46.5395 23.7617H45.4508L45.1297 24.8698C45.1224 24.8927 45.1084 24.913 45.0896 24.928C45.0708 24.9431 45.0479 24.9521 45.0239 24.9541H44.6166C44.6065 24.9544 44.5964 24.9522 44.5873 24.9476C44.5782 24.943 44.5703 24.9362 44.5645 24.9279C44.5587 24.9195 44.555 24.9098 44.5539 24.8997C44.5527 24.8895 44.5541 24.8793 44.5579 24.8698L45.396 21.9672Z" fill="#999999"/>
<path d="M47.7185 24.8389L49.9409 21.8894C49.9507 21.8748 49.9638 21.8627 49.9791 21.8542C49.9944 21.8457 50.0115 21.8409 50.0291 21.8404H50.0761C50.0832 21.8393 50.0905 21.8398 50.0974 21.8418C50.1043 21.8438 50.1108 21.8472 50.1163 21.8518C50.1218 21.8564 50.1264 21.8621 50.1295 21.8686C50.1327 21.8751 50.1345 21.8822 50.1348 21.8894L50.6401 24.8389C50.6413 24.8539 50.6393 24.869 50.6343 24.8832C50.6292 24.8974 50.6213 24.9103 50.611 24.9212C50.6006 24.9322 50.5881 24.9408 50.5742 24.9465C50.5604 24.9523 50.5454 24.955 50.5304 24.9546H50.1485C50.1358 24.9566 50.1229 24.9558 50.1106 24.9522C50.0983 24.9487 50.0869 24.9425 50.0772 24.9341C50.0675 24.9257 50.0598 24.9153 50.0545 24.9036C50.0492 24.8919 50.0465 24.8792 50.0467 24.8664L49.9665 24.3918H48.6466L48.2961 24.8664C48.2798 24.8925 48.2574 24.9142 48.2307 24.9296C48.2041 24.945 48.1741 24.9536 48.1434 24.9546H47.7597C47.695 24.9546 47.6755 24.8978 47.7185 24.8389ZM49.892 23.9074L49.7295 22.9406H49.7158L49.0069 23.9074H49.892L49.892 23.9074Z" fill="#999999"/>
<path d="M54.4265 21.8403C54.6059 21.8273 54.7857 21.8576 54.9509 21.9286C55.1161 21.9996 55.262 22.1092 55.3762 22.2483C55.3825 22.2583 55.3868 22.2696 55.3886 22.2814C55.3905 22.2932 55.3899 22.3052 55.387 22.3168C55.3841 22.3283 55.3788 22.3392 55.3716 22.3486C55.3643 22.3581 55.3552 22.366 55.3449 22.3718L54.9983 22.6464C54.9914 22.6547 54.9827 22.6615 54.9729 22.6661C54.9631 22.6707 54.9524 22.6731 54.9415 22.6731C54.9307 22.6731 54.9199 22.6707 54.9101 22.6661C54.9003 22.6615 54.8916 22.6547 54.8847 22.6464C54.809 22.5619 54.7158 22.495 54.6117 22.4503C54.5075 22.4056 54.3949 22.3842 54.2816 22.3875C53.9899 22.407 53.7111 22.5156 53.4829 22.6987C53.2546 22.8817 53.0879 23.1304 53.005 23.4112C52.9557 23.5237 52.9359 23.6469 52.9474 23.7692C52.959 23.8915 53.0014 24.0088 53.0708 24.1101C53.1402 24.2114 53.2342 24.2933 53.344 24.3481C53.4537 24.4029 53.5756 24.4287 53.6981 24.4232C53.9657 24.4146 54.225 24.3281 54.4442 24.1742C54.4593 24.1601 54.4793 24.1523 54.5 24.1523C54.5206 24.1523 54.5406 24.1601 54.5558 24.1742L54.7476 24.4545C54.7569 24.4755 54.7581 24.4992 54.7508 24.521C54.7436 24.5427 54.7285 24.561 54.7085 24.5722C54.3675 24.8409 53.9479 24.9904 53.5141 24.9978C53.3206 25.0107 53.127 24.9741 52.9516 24.8914C52.7762 24.8088 52.6246 24.6828 52.5112 24.5252C52.3978 24.3677 52.3263 24.1839 52.3034 23.9911C52.2805 23.7982 52.307 23.6027 52.3804 23.423C52.5202 22.982 52.791 22.5943 53.1566 22.3115C53.5222 22.0287 53.9652 21.8643 54.4265 21.8403V21.8403Z" fill="#999999"/>
<path d="M57.2155 21.9672C57.223 21.944 57.2373 21.9235 57.2565 21.9085C57.2757 21.8935 57.2989 21.8846 57.3232 21.8829H59.1168C59.1271 21.8823 59.1374 21.8844 59.1467 21.8889C59.1561 21.8933 59.1641 21.9001 59.1701 21.9085C59.1762 21.9169 59.18 21.9266 59.1813 21.9369C59.1826 21.9472 59.1813 21.9576 59.1775 21.9672L59.0737 22.3261C59.0661 22.3496 59.0515 22.3703 59.032 22.3853C59.0124 22.4004 58.9887 22.4092 58.9641 22.4105H57.66L57.4525 23.1282H58.5412C58.5513 23.1282 58.5613 23.1307 58.5704 23.1353C58.5794 23.1399 58.5872 23.1466 58.5931 23.1549C58.599 23.1631 58.6029 23.1726 58.6045 23.1827C58.606 23.1927 58.6051 23.203 58.6019 23.2126L58.4962 23.5774C58.4888 23.6005 58.4745 23.6208 58.4552 23.6355C58.436 23.6502 58.4127 23.6587 58.3885 23.6597H57.2997L57.0765 24.4285H58.3806C58.3907 24.4278 58.4009 24.4297 58.4101 24.434C58.4193 24.4383 58.4273 24.4448 58.4334 24.453C58.4394 24.4612 58.4433 24.4708 58.4447 24.4809C58.4461 24.491 58.4449 24.5013 58.4413 24.5108L58.3375 24.8697C58.3303 24.8931 58.3161 24.9137 58.2969 24.9288C58.2776 24.9439 58.2542 24.9527 58.2298 24.954H56.4362C56.426 24.9543 56.4159 24.9521 56.4068 24.9475C56.3977 24.9429 56.3899 24.9361 56.3841 24.9278C56.3783 24.9194 56.3746 24.9097 56.3734 24.8996C56.3723 24.8894 56.3737 24.8792 56.3775 24.8697L57.2155 21.9672Z" fill="#999999"/>
<path d="M63.1398 21.9672C63.1473 21.944 63.1616 21.9235 63.1808 21.9085C63.2 21.8935 63.2232 21.8846 63.2475 21.8829H65.0411C65.0514 21.8823 65.0617 21.8844 65.0711 21.8889C65.0804 21.8933 65.0884 21.9001 65.0945 21.9085C65.1005 21.9169 65.1043 21.9266 65.1056 21.9369C65.1069 21.9472 65.1056 21.9576 65.1018 21.9672L64.998 22.3261C64.9904 22.3496 64.9758 22.3703 64.9563 22.3853C64.9367 22.4004 64.913 22.4092 64.8884 22.4105H63.5843L63.3474 23.2342H64.4361C64.4463 23.2341 64.4563 23.2364 64.4652 23.2411C64.4742 23.2457 64.482 23.2525 64.4878 23.2608C64.4935 23.2691 64.4972 23.2787 64.4985 23.2888C64.4997 23.2988 64.4985 23.309 64.4949 23.3185L64.3911 23.6774C64.3834 23.7005 64.3691 23.7208 64.3499 23.7358C64.3308 23.7508 64.3077 23.7598 64.2834 23.7617H63.1947L62.8735 24.8698C62.8662 24.8927 62.8523 24.913 62.8335 24.928C62.8147 24.9431 62.7918 24.9521 62.7678 24.9541H62.3605C62.3504 24.9544 62.3403 24.9522 62.3312 24.9476C62.322 24.943 62.3142 24.9362 62.3084 24.9279C62.3026 24.9195 62.2989 24.9098 62.2978 24.8997C62.2966 24.8895 62.298 24.8793 62.3018 24.8698L63.1398 21.9672Z" fill="#999999"/>
<path d="M68.1997 21.8404C68.3934 21.8288 68.587 21.8666 68.7622 21.9503C68.9374 22.034 69.0885 22.1608 69.2014 22.319C69.3143 22.4771 69.3853 22.6614 69.4077 22.8545C69.4301 23.0476 69.4032 23.2432 69.3295 23.4231C69.1899 23.8628 68.9195 24.2492 68.5545 24.5307C68.1895 24.8121 67.7473 24.9751 67.2873 24.9979C67.0941 25.0105 66.9009 24.9737 66.7259 24.8907C66.551 24.8078 66.4 24.6815 66.2873 24.5239C66.1746 24.3663 66.1039 24.1825 66.0819 23.9899C66.0598 23.7972 66.0872 23.6022 66.1614 23.4231C66.2995 22.9826 66.5688 22.595 66.9331 22.3121C67.2974 22.0292 67.7394 21.8646 68.1997 21.8404ZM67.4518 24.4291C67.745 24.4123 68.0263 24.3072 68.2589 24.1277C68.4916 23.9482 68.6648 23.7026 68.7559 23.423C68.8014 23.3081 68.8175 23.1836 68.8026 23.0609C68.7877 22.9382 68.7424 22.8212 68.6707 22.7205C68.599 22.6199 68.5033 22.5389 68.3923 22.4848C68.2813 22.4308 68.1586 22.4054 68.0353 22.4111C67.742 22.429 67.461 22.5352 67.229 22.7158C66.997 22.8964 66.8249 23.1429 66.7351 23.4231C66.689 23.5373 66.6725 23.6613 66.6869 23.7837C66.7014 23.906 66.7464 24.0227 66.8178 24.123C66.8893 24.2233 66.9848 24.3039 67.0956 24.3574C67.2064 24.411 67.3289 24.4356 67.4517 24.4291H67.4518Z" fill="#999999"/>
<path d="M71.505 21.9677C71.512 21.9442 71.5261 21.9234 71.5454 21.9083C71.5647 21.8931 71.5882 21.8844 71.6127 21.8834H72.8718C72.9879 21.8756 73.1042 21.8973 73.2097 21.9466C73.3153 21.9959 73.4067 22.0711 73.4754 22.1652C73.5442 22.2593 73.5881 22.3693 73.603 22.4849C73.618 22.6006 73.6035 22.7181 73.561 22.8267C73.4878 23.0348 73.3675 23.2231 73.2095 23.3768C73.0516 23.5306 72.8602 23.6457 72.6505 23.7131L72.9344 24.8251C72.9367 24.8413 72.9354 24.8578 72.9308 24.8735C72.9261 24.8891 72.9181 24.9036 72.9073 24.9159C72.8965 24.9282 72.8832 24.938 72.8683 24.9447C72.8534 24.9513 72.8372 24.9547 72.8209 24.9545H72.3587C72.3459 24.9559 72.333 24.9527 72.3223 24.9456C72.3116 24.9384 72.3037 24.9277 72.3 24.9153L72.0494 23.7524H71.5599L71.2368 24.8702C71.2291 24.8933 71.2147 24.9136 71.1956 24.9286C71.1764 24.9436 71.1533 24.9526 71.1291 24.9545H70.7257C70.7154 24.9553 70.705 24.9534 70.6956 24.9489C70.6861 24.9445 70.678 24.9378 70.6719 24.9293C70.6658 24.9209 70.662 24.911 70.6608 24.9007C70.6596 24.8903 70.6611 24.8798 70.665 24.8702L71.505 21.9677ZM72.4175 23.2836C72.5458 23.2739 72.6682 23.2262 72.7693 23.1466C72.8704 23.067 72.9456 22.959 72.9853 22.8365C73.0034 22.7871 73.009 22.7341 73.0015 22.682C72.994 22.63 72.9737 22.5807 72.9424 22.5384C72.9112 22.4962 72.8699 22.4625 72.8223 22.4402C72.7748 22.4179 72.7225 22.4079 72.6701 22.4109H71.9534L71.7008 23.2836H72.4174H72.4175Z" fill="#999999"/>
<path d="M78.1095 21.907C78.117 21.8868 78.1307 21.8694 78.1486 21.8575C78.1666 21.8455 78.1878 21.8395 78.2093 21.8403H78.2798C78.2935 21.8387 78.3072 21.8423 78.3184 21.8502C78.3296 21.8582 78.3375 21.87 78.3405 21.8835L78.7106 23.9544H78.7263L80.2908 21.8835C80.3011 21.87 80.3145 21.859 80.3298 21.8515C80.3451 21.8441 80.3619 21.8402 80.3789 21.8403H80.4494C80.4583 21.8386 80.4674 21.8392 80.476 21.842C80.4846 21.8449 80.4923 21.8499 80.4984 21.8566C80.5045 21.8633 80.5088 21.8714 80.5108 21.8803C80.5129 21.8891 80.5126 21.8983 80.5101 21.907L80.1792 24.8526C80.1788 24.8666 80.1756 24.8803 80.1698 24.8929C80.1641 24.9056 80.1558 24.917 80.1457 24.9265C80.1355 24.936 80.1235 24.9434 80.1104 24.9482C80.0974 24.953 80.0835 24.9552 80.0696 24.9546H79.6701C79.6526 24.9541 79.6359 24.947 79.6235 24.9346C79.6111 24.9222 79.604 24.9055 79.6035 24.8879L79.8248 23.2269H79.811L78.5422 24.9507C78.5323 24.9655 78.5189 24.9775 78.5032 24.9857C78.4874 24.994 78.4699 24.9981 78.4521 24.9978H78.3738C78.3594 24.9992 78.345 24.9952 78.3334 24.9865C78.3218 24.9778 78.3139 24.965 78.3112 24.9508L78.0312 23.2269H78.0194L77.2812 24.888C77.2719 24.9065 77.258 24.9224 77.2409 24.934C77.2238 24.9457 77.204 24.9528 77.1833 24.9547H76.7878C76.731 24.9547 76.7056 24.9155 76.733 24.8527L78.1095 21.907Z" fill="#999999"/>
<path d="M84.1892 21.8404C84.3829 21.8288 84.5763 21.8667 84.7514 21.9505C84.9264 22.0342 85.0774 22.1612 85.1901 22.3193C85.3028 22.4775 85.3736 22.6617 85.3958 22.8548C85.418 23.0478 85.3909 23.2434 85.317 23.4231C85.1775 23.8627 84.907 24.2492 84.542 24.5307C84.177 24.8121 83.7349 24.9751 83.2748 24.9979C83.0816 25.0105 82.8885 24.9736 82.7135 24.8907C82.5385 24.8078 82.3875 24.6815 82.2748 24.5239C82.1621 24.3663 82.0914 24.1824 82.0694 23.9898C82.0474 23.7972 82.0747 23.6021 82.1489 23.4231C82.2875 22.9825 82.5571 22.5948 82.9218 22.3119C83.2864 22.0291 83.7286 21.8646 84.1892 21.8404ZM83.4393 24.4291C83.7328 24.4126 84.0145 24.3077 84.2476 24.1282C84.4806 23.9487 84.6541 23.7029 84.7453 23.423C84.7909 23.3079 84.8069 23.1833 84.7919 23.0604C84.7769 22.9376 84.7314 22.8205 84.6595 22.7198C84.5876 22.6191 84.4917 22.5381 84.3804 22.4842C84.2692 22.4302 84.1463 22.4051 84.0228 22.411C83.7295 22.4287 83.4483 22.5348 83.2163 22.7154C82.9842 22.896 82.8122 23.1426 82.7227 23.423C82.6764 23.5372 82.6596 23.6613 82.674 23.7837C82.6884 23.9062 82.7334 24.023 82.8049 24.1233C82.8764 24.2237 82.972 24.3043 83.0829 24.3578C83.1938 24.4112 83.3164 24.4358 83.4393 24.4291H83.4393Z" fill="#999999"/>
<path d="M87.5044 21.9188C87.5122 21.8963 87.5267 21.8767 87.546 21.8627C87.5652 21.8487 87.5883 21.8409 87.6121 21.8403H87.7217L88.9925 23.778H88.9965L89.5193 21.9678C89.527 21.9443 89.5415 21.9237 89.5611 21.9086C89.5807 21.8936 89.6043 21.8848 89.629 21.8835H90.0343C90.0443 21.8834 90.0542 21.8859 90.0631 21.8906C90.072 21.8953 90.0796 21.9021 90.0852 21.9105C90.0908 21.9188 90.0943 21.9284 90.0953 21.9384C90.0963 21.9484 90.0949 21.9585 90.0911 21.9678L89.2393 24.9174C89.2319 24.9399 89.2179 24.9597 89.199 24.9741C89.1801 24.9884 89.1573 24.9967 89.1336 24.9977H89.0278L87.7687 22.9855H87.7647L87.2184 24.8702C87.2112 24.8935 87.1971 24.9142 87.1778 24.9292C87.1585 24.9443 87.1351 24.9531 87.1107 24.9545H86.7114C86.7011 24.9549 86.6909 24.9527 86.6817 24.9482C86.6725 24.9437 86.6645 24.9369 86.6585 24.9286C86.6525 24.9202 86.6486 24.9105 86.6473 24.9004C86.6459 24.8902 86.6471 24.8798 86.6507 24.8702L87.5044 21.9188Z" fill="#999999"/>
<path d="M92.0724 21.9673C92.0794 21.9437 92.0935 21.923 92.1128 21.9078C92.1321 21.8927 92.1556 21.884 92.1801 21.8829H93.9717C93.982 21.8823 93.9923 21.8843 94.0016 21.8887C94.0109 21.8932 94.0189 21.9 94.0248 21.9085C94.0308 21.917 94.0344 21.9269 94.0354 21.9372C94.0363 21.9475 94.0347 21.9578 94.0305 21.9673L93.9287 22.3262C93.921 22.3497 93.9065 22.3703 93.8869 22.3854C93.8673 22.4004 93.8436 22.4092 93.819 22.4105H92.515L92.3074 23.1283H93.3961C93.4064 23.1279 93.4166 23.1301 93.4258 23.1346C93.435 23.1391 93.443 23.1459 93.449 23.1542C93.455 23.1625 93.4589 23.1722 93.4602 23.1824C93.4616 23.1926 93.4604 23.203 93.4568 23.2126L93.3511 23.5774C93.344 23.6007 93.3297 23.6211 93.3104 23.6359C93.2911 23.6506 93.2677 23.659 93.2434 23.6597H92.1547L91.9314 24.4285H93.2355C93.2457 24.4277 93.2559 24.4295 93.2652 24.4337C93.2746 24.438 93.2826 24.4445 93.2887 24.4528C93.2948 24.461 93.2987 24.4707 93.3 24.4808C93.3013 24.491 93.3 24.5013 93.2962 24.5108L93.1924 24.8697C93.1855 24.8933 93.1714 24.9141 93.1521 24.9292C93.1328 24.9443 93.1092 24.953 93.0847 24.9541H91.2931C91.2827 24.9548 91.2724 24.9529 91.2629 24.9485C91.2535 24.944 91.2454 24.9373 91.2393 24.9288C91.2332 24.9204 91.2294 24.9105 91.2282 24.9002C91.227 24.8898 91.2284 24.8793 91.2324 24.8697L92.0724 21.9673Z" fill="#999999"/>
<path d="M95.9924 23.4757L95.4109 22.0108C95.4083 21.9951 95.4091 21.979 95.4133 21.9637C95.4175 21.9484 95.425 21.9342 95.4353 21.922C95.4455 21.9099 95.4583 21.9001 95.4727 21.8935C95.4871 21.8868 95.5028 21.8833 95.5186 21.8833H95.9689C95.9815 21.8832 95.9938 21.8869 96.0043 21.8939C96.0147 21.9009 96.0229 21.9109 96.0276 21.9225L96.4409 22.9325L97.4375 21.9225C97.4596 21.9004 97.4887 21.8865 97.5197 21.8833H97.9721C98.0426 21.8833 98.0563 21.9559 98.0053 22.0108L96.5681 23.4718L96.1628 24.8702C96.1548 24.8931 96.1404 24.9132 96.1213 24.9282C96.1022 24.9431 96.0793 24.9523 96.0551 24.9545H95.6497C95.6394 24.955 95.6291 24.953 95.6198 24.9485C95.6105 24.9441 95.6024 24.9373 95.5964 24.9289C95.5904 24.9205 95.5865 24.9107 95.5852 24.9005C95.5839 24.8902 95.5852 24.8798 95.589 24.8702L95.9924 23.4757Z" fill="#999999"/>
</svg>
