<svg width="32" height="24" viewBox="0 0 32 24" fill="none" xmlns="http://www.w3.org/2000/svg">
<path d="M0.813232 3.98405V0.0576172H3.00925C3.78003 0.0576172 4.14361 0.557612 4.14361 1.05761C4.14361 1.5429 3.85275 1.88113 3.47463 1.95466C3.88184 2.01348 4.21633 2.42524 4.21633 2.91053C4.21633 3.48405 3.83821 3.96934 3.08196 3.96934H0.813232V3.98405ZM3.12559 1.24878C3.12559 1.05761 2.98016 0.939961 2.77656 0.939961H1.81671V1.5576H2.7911C2.9947 1.5576 3.12559 1.43996 3.12559 1.24878ZM3.19831 2.76347C3.19831 2.5723 3.05288 2.43994 2.82019 2.43994H1.81671V3.1017H2.82019C3.05288 3.1017 3.19831 2.98406 3.19831 2.76347Z" fill="#999999"/>
<path d="M7.38656 3.98502V2.41151H5.77228V3.98502H4.7688V0.0585938H5.77228V1.52917H7.38656V0.0585938H8.3755V3.98502H7.38656Z" fill="#999999"/>
<path d="M11.7058 3.98502L11.5167 3.4262H9.98968L9.80062 3.98502H8.66626L10.1206 0.0585938H11.3858L12.8401 3.98502H11.7058V3.98502ZM10.7605 1.05858L10.266 2.52916H11.2549L10.7605 1.05858Z" fill="#999999"/>
<path d="M15.2983 3.98502L14.6438 2.66151H14.1348V3.98502H13.1313V0.0585938H15.0801C15.9382 0.0585938 16.4326 0.632117 16.4326 1.3674C16.4326 2.04387 16.0254 2.41151 15.6619 2.54386L16.4472 3.98502H15.2983ZM15.4001 1.3674C15.4001 1.1027 15.1819 0.955643 14.9202 0.955643H14.1348V1.79387H14.9202C15.1965 1.79387 15.4001 1.64681 15.4001 1.3674Z" fill="#999999"/>
<path d="M19.6174 3.98502L19.4283 3.4262H17.9013L17.7122 3.98502H16.5779L18.0322 0.0585938H19.2974L20.7518 3.98502H19.6174ZM18.6575 1.05858L18.1631 2.52916H19.152L18.6575 1.05858Z" fill="#999999"/>
<path d="M21.5373 3.98502V0.940937H20.4465V0.0585938H23.6169V0.940937H22.5407V3.98502H21.5373Z" fill="#999999"/>
<path d="M23.7622 2.02939C23.7622 0.838226 24.6639 0 25.8419 0C27.0344 0 27.907 0.838226 27.907 2.02939C27.907 2.5735 27.7325 3.04408 27.4125 3.38232L27.6598 3.67643L26.9617 4.23525L26.6708 3.88231C26.4091 3.98525 26.1327 4.04407 25.8273 4.04407C24.6639 4.05878 23.7622 3.22055 23.7622 2.02939ZM26.0746 3.14702L25.7255 2.70585L26.4236 2.14703L26.7872 2.58821C26.8599 2.42644 26.9035 2.23527 26.9035 2.02939C26.9035 1.38234 26.4963 0.897049 25.8564 0.897049C25.2165 0.897049 24.7948 1.39704 24.7948 2.02939C24.7948 2.66173 25.2165 3.16173 25.8564 3.16173C25.9146 3.16173 26.0018 3.16173 26.0746 3.14702Z" fill="#999999"/>
<path d="M30.5829 3.98502L29.9285 2.66151H29.4195V3.98502H28.416V0.0585938H30.3648C31.2228 0.0585938 31.7173 0.632117 31.7173 1.3674C31.7173 2.04387 31.3101 2.41151 30.9465 2.54386L31.7319 3.98502H30.5829ZM30.6993 1.3674C30.6993 1.1027 30.4811 0.955643 30.2194 0.955643H29.434V1.79387H30.2194C30.4811 1.79387 30.6993 1.64681 30.6993 1.3674Z" fill="#999999"/>
<path d="M19.0792 24.0001L16.4179 20.9119V6.67676H0.856689V22.3972H15.1962L16.5778 24.0001H19.0792V24.0001ZM2.87819 20.3531V8.72085H14.3964V18.5884L13.1166 17.1031H10.6151L13.4365 20.3678H2.87819V20.3531Z" fill="#999999"/>
<path d="M5.74348 10.1768C5.26356 10.1768 4.79818 10.1768 4.30371 10.1768C4.30371 10.6768 4.30371 11.162 4.30371 11.6326C4.79818 11.6326 5.2781 11.6326 5.74348 11.6326C5.74348 11.1326 5.74348 10.662 5.74348 10.1768Z" fill="#999999"/>
<path d="M12.9276 10.1768C12.4476 10.1768 11.9823 10.1768 11.4878 10.1768C11.4878 10.6768 11.4878 11.162 11.4878 11.6326C11.9823 11.6326 12.4622 11.6326 12.9276 11.6326C12.9276 11.1326 12.9276 10.662 12.9276 10.1768Z" fill="#999999"/>
<path d="M7.18325 13.0884C6.70333 13.0884 6.23795 13.0884 5.74348 13.0884C5.26356 13.0884 4.79818 13.0884 4.30371 13.0884C4.30371 13.6031 4.30371 14.0737 4.30371 14.5442C4.30371 15.0589 4.30371 15.5295 4.30371 16.0001C4.79818 16.0001 5.2781 16.0001 5.74348 16.0001C5.74348 15.5001 5.74348 15.0295 5.74348 14.5442C6.23795 14.5442 6.71787 14.5442 7.18325 14.5442C7.18325 14.059 7.18325 13.5737 7.18325 13.0884Z" fill="#999999"/>
<path d="M11.5022 14.5444C11.9966 14.5444 12.4766 14.5444 12.9419 14.5444C12.9419 14.0444 12.9419 13.5738 12.9419 13.0885C12.462 13.0885 11.9966 13.0885 11.5022 13.0885C11.0223 13.0885 10.5569 13.0885 10.0624 13.0885C10.0624 12.5885 10.0624 12.1179 10.0624 11.6326C10.0624 11.1326 10.0624 10.662 10.0624 10.1768C9.58248 10.1768 9.1171 10.1768 8.62263 10.1768C8.14271 10.1768 7.67733 10.1768 7.18286 10.1768C7.18286 10.6768 7.18286 11.162 7.18286 11.6326C7.67733 11.6326 8.15725 11.6326 8.62263 11.6326C8.62263 12.1326 8.62263 12.6179 8.62263 13.0885C8.62263 13.6032 8.62263 14.0738 8.62263 14.5444C8.62263 15.0591 8.62263 15.5296 8.62263 16.0002C8.14271 16.0002 7.67733 16.0002 7.18286 16.0002C7.18286 16.5002 7.18286 16.9855 7.18286 17.4561C7.18286 17.9708 7.18286 18.4414 7.18286 18.912C7.67733 18.912 8.15725 18.912 8.62263 18.912C8.62263 18.412 8.62263 17.9414 8.62263 17.4561C9.1171 17.4561 9.59702 17.4561 10.0624 17.4561C10.0624 16.9561 10.0624 16.4855 10.0624 16.0002C10.0624 15.5002 10.0624 15.0296 10.0624 14.5444C10.5569 14.5444 11.0223 14.5444 11.5022 14.5444Z" fill="#999999"/>
<path d="M4.31812 18.9266C4.81258 18.9266 5.2925 18.9266 5.75789 18.9266C5.75789 18.4266 5.75789 17.956 5.75789 17.4707C5.27796 17.4707 4.81258 17.4707 4.31812 17.4707C4.31812 17.9854 4.31812 18.456 4.31812 18.9266Z" fill="#999999"/>
<path d="M19.6758 6.58789V8.51434H23.5443C25.2313 8.51434 26.4674 9.38198 26.8601 10.8231H19.6758V11.132V12.4849V12.7496H26.8601C26.482 14.1319 25.3622 15.0584 23.8351 15.1613H19.6758V15.176V17.0731V17.0878H22.4972L27.18 23.9995H29.6815L24.7368 16.8966C26.8601 16.7201 28.7798 15.2937 29.1434 12.7496H31.6302V12.4849V11.132V10.8231H29.0997C28.9252 9.91138 28.4889 9.11727 27.8636 8.51434H31.6302V7.94082V6.58789H19.6758Z" fill="#999999"/>
</svg>
