<svg width="63" height="25" viewBox="0 0 63 25" fill="none" xmlns="http://www.w3.org/2000/svg">
<g clip-path="url(#clip0_3566_315)">
<path d="M29.5139 12.2135V19.5418H27.2095V1.44409H33.3213C34.0508 1.42871 34.7761 1.55925 35.4554 1.82815C36.1347 2.09706 36.7544 2.49902 37.2789 3.01083C37.8087 3.49157 38.2303 4.08114 38.5154 4.73992C38.8006 5.39871 38.9427 6.11144 38.9321 6.83021C38.9473 7.55283 38.8074 8.27022 38.522 8.9332C38.2367 9.59618 37.8126 10.1891 37.2789 10.6713C36.2102 11.6994 34.891 12.213 33.3213 12.212H29.5139V12.2135ZM29.5139 3.67218V9.98969H33.3785C33.8022 10.0024 34.2238 9.92568 34.6164 9.76456C35.0091 9.60343 35.364 9.36141 35.6586 9.05398C35.9517 8.76653 36.1846 8.42272 36.3437 8.04287C36.5028 7.66302 36.5848 7.25485 36.5848 6.84249C36.5848 6.43013 36.5028 6.02196 36.3437 5.64211C36.1846 5.26226 35.9517 4.91845 35.6586 4.631C35.3677 4.31708 35.014 4.06913 34.6209 3.90358C34.2278 3.73803 33.8043 3.65866 33.3785 3.67074H29.5139V3.67218Z" fill="#999999"/>
<path d="M44.2426 6.75488C45.9459 6.75488 47.2904 7.21408 48.2761 8.13246C49.2618 9.05085 49.7542 10.31 49.7532 11.91V19.5415H47.549V17.8232H47.4488C46.4945 19.2383 45.2254 19.9458 43.6414 19.9458C42.2893 19.9458 41.158 19.5415 40.2477 18.7329C39.8108 18.3617 39.4616 17.8969 39.2253 17.3723C38.9891 16.8477 38.8719 16.2766 38.8822 15.7005C38.8822 14.4192 39.3622 13.4002 40.3221 12.6435C41.2821 11.8869 42.5636 11.5076 44.1667 11.5056C45.5351 11.5056 46.662 11.7583 47.5475 12.2637V11.7324C47.5501 11.3396 47.4661 10.9512 47.3014 10.5953C47.1368 10.2394 46.8957 9.92491 46.5957 9.67465C45.9863 9.11998 45.1921 8.81733 44.3714 8.82703C43.0841 8.82703 42.0655 9.37478 41.3155 10.4703L39.2859 9.18081C40.4023 7.56352 42.0545 6.75488 44.2426 6.75488ZM41.2611 15.751C41.2596 16.0469 41.3281 16.3389 41.4611 16.6026C41.594 16.8663 41.7875 17.0942 42.0254 17.2672C42.5351 17.6717 43.1677 17.8859 43.816 17.8737C44.7885 17.8721 45.7206 17.4816 46.4082 16.7878C47.1716 16.0629 47.5532 15.2124 47.5532 14.2363C46.8347 13.6587 45.8328 13.3699 44.5474 13.3699C43.6114 13.3699 42.8308 13.5975 42.2058 14.0529C41.5746 14.5149 41.2611 15.0767 41.2611 15.751V15.751Z" fill="#999999"/>
<path d="M62.4061 7.15918L54.7113 24.9998H52.3324L55.1879 18.7574L50.1282 7.15918H52.633L56.29 16.0542H56.3401L59.897 7.15918H62.4061Z" fill="#999999"/>
<path d="M20.2019 10.6335C20.2028 9.92505 20.1434 9.21779 20.0244 8.51953H10.3057V12.5237H15.8721C15.7582 13.1633 15.5171 13.7729 15.1634 14.3159C14.8096 14.8589 14.3506 15.324 13.8139 15.6832V18.2824H17.136C19.0812 16.4731 20.2019 13.7974 20.2019 10.6335Z" fill="#999999"/>
<path d="M10.3057 20.7937C13.0867 20.7937 15.4284 19.8724 17.136 18.284L13.8138 15.6848C12.8892 16.3173 11.6983 16.6783 10.3057 16.6783C7.61761 16.6783 5.33607 14.8502 4.52021 12.3867H1.0979V15.0653C1.95565 16.7873 3.27092 18.2348 4.89686 19.2464C6.5228 20.2579 8.39542 20.7936 10.3057 20.7937V20.7937Z" fill="#999999"/>
<path d="M4.52016 12.3868C4.08885 11.0959 4.08885 9.69801 4.52016 8.40714V5.72852H1.09785C0.376281 7.17707 0.000488281 8.77579 0.000488281 10.397C0.000488281 12.0182 0.376281 13.6169 1.09785 15.0654L4.52016 12.3868Z" fill="#999999"/>
<path d="M10.3057 4.1156C11.7753 4.09137 13.1954 4.65158 14.259 5.67512L17.2004 2.7077C15.3352 0.940348 12.8643 -0.0299555 10.3057 0.000193847C8.39542 0.000281678 6.5228 0.535997 4.89686 1.54753C3.27092 2.55907 1.95565 4.00661 1.0979 5.72855L4.52021 8.40717C5.33607 5.9437 7.61762 4.1156 10.3057 4.1156Z" fill="#999999"/>
</g>
<defs>
<clipPath id="clip0_3566_315">
<rect width="62.4017" height="25" fill="white"/>
</clipPath>
</defs>
</svg>
