<svg width="81" height="25" viewBox="0 0 81 25" fill="none" xmlns="http://www.w3.org/2000/svg">
<path d="M80.1827 7.37417C79.4598 5.30407 77.4898 3.81755 75.1759 3.81755H75.1274C73.6232 3.81755 72.2676 4.4446 71.3026 5.45122C70.336 4.4446 68.9803 3.81755 67.4778 3.81755H67.4294C66.1071 3.81755 64.8984 4.30247 63.9702 5.10509V4.69709C63.9384 4.29076 63.6045 3.97138 63.1922 3.97138H59.6428C59.2087 3.97138 58.8582 4.32253 58.8582 4.75896V24.0637C58.8582 24.5001 59.2087 24.8513 59.6428 24.8513H63.1922C63.5878 24.8513 63.9134 24.5553 63.9652 24.1724L63.9635 10.3138C63.9635 10.2653 63.9652 10.2201 63.9702 10.175C64.0269 9.5563 64.4794 9.04797 65.1939 8.98443H65.3258H65.6981H65.8484C66.1472 9.01118 66.3993 9.11653 66.598 9.27538C66.9068 9.52118 67.0788 9.89908 67.0788 10.3138L67.0921 24.1038C67.0921 24.5402 67.4444 24.8931 67.8768 24.8931H71.4262C71.8452 24.8931 72.1858 24.5586 72.2058 24.1423L72.2041 10.2954C72.2025 9.84056 72.4128 9.42921 72.7818 9.18508C72.9638 9.06803 73.1825 8.98944 73.4346 8.96603H73.5665H73.9388H74.089C74.857 9.03292 75.3211 9.61649 75.3194 10.2954L75.3328 24.067C75.3328 24.5035 75.685 24.8546 76.1175 24.8546H79.6668C80.0992 24.8546 80.4515 24.5035 80.4515 24.067V9.25531C80.4515 8.24535 80.3379 7.81561 80.1827 7.37417Z" fill="#999999"/>
<path d="M56.1542 4.02147H54.1241V0.727375C54.1241 0.724031 54.1241 0.720687 54.1241 0.717343C54.1241 0.321049 53.8036 3.52355e-08 53.4079 3.52355e-08C53.3611 3.52355e-08 53.3161 0.00668826 53.2727 0.0150489C51.0222 0.633737 51.4729 3.7556 47.3643 4.02147H47.2725H46.9653C46.9052 4.02147 46.8484 4.02983 46.7933 4.04154H46.79L46.7933 4.04321C46.4427 4.1218 46.179 4.43281 46.179 4.80737V8.36232C46.179 8.7954 46.5312 9.14822 46.9653 9.14822H49.1073L49.1039 24.2225C49.1039 24.6522 49.4512 25 49.8802 25H53.3895C53.8169 25 54.1642 24.6522 54.1642 24.2225L54.1658 9.14822H56.1542C56.5866 9.14822 56.9389 8.7954 56.9389 8.36232V4.80737C56.9389 4.37429 56.5866 4.02147 56.1542 4.02147Z" fill="#999999"/>
<path d="M43.3843 4.02137H39.8349C39.4025 4.02137 39.0519 4.37419 39.0519 4.80727V12.158C39.0436 12.6128 38.6763 12.9773 38.2205 12.9773H36.7347C36.2739 12.9773 35.9016 12.6061 35.9016 12.1446L35.8882 4.80727C35.8882 4.37419 35.536 4.02137 35.1036 4.02137H31.5542C31.1201 4.02137 30.7695 4.37419 30.7695 4.80727V12.8636C30.7695 15.9236 32.9482 18.1057 36.0051 18.1057C36.0051 18.1057 38.299 18.1057 38.3691 18.1191C38.7831 18.1659 39.1054 18.5137 39.1054 18.9418C39.1054 19.3648 38.7898 19.711 38.3808 19.7628C38.3608 19.7661 38.3424 19.7712 38.3207 19.7745L33.1302 19.7929C32.6961 19.7929 32.3455 20.1457 32.3455 20.5788V24.1321C32.3455 24.5668 32.6961 24.918 33.1302 24.918H38.9334C41.9919 24.918 44.1689 22.7375 44.1689 19.6758V4.80727C44.1689 4.37419 43.8184 4.02137 43.3843 4.02137Z" fill="#999999"/>
<path d="M9.02885 10.5382V12.1969V12.732C9.02885 13.1919 8.65655 13.5664 8.19743 13.5664L5.94528 13.5681V9.17206H8.19743C8.65655 9.17206 9.02885 9.54327 9.02885 10.0048V10.5382ZM9.34104 4.02358H1.58287C1.15715 4.02358 0.813232 4.36971 0.813232 4.79443V8.27747C0.813232 8.28416 0.814902 8.29085 0.814902 8.29754C0.814902 8.31426 0.813232 8.33098 0.813232 8.34603V19.5175V24.1109C0.813232 24.5389 1.13378 24.8884 1.53112 24.8984H1.5979H5.14726C5.57966 24.8984 5.93192 24.5473 5.93192 24.1125L5.94528 18.7099H9.34104C12.1825 18.7099 14.1626 16.7351 14.1626 13.8774V8.86272C14.1626 6.00505 12.1825 4.02358 9.34104 4.02358" fill="#999999"/>
<path d="M23.7558 18.8814V19.4365C23.7558 19.4817 23.7491 19.5252 23.7424 19.567C23.7341 19.6071 23.7224 19.6456 23.709 19.6823C23.5989 19.9934 23.2883 20.2191 22.9194 20.2191H21.4419C20.9811 20.2191 20.6054 19.868 20.6054 19.4365V18.766C20.6054 18.7577 20.6038 18.7493 20.6038 18.7409L20.6054 16.9568V16.9534V16.7561V16.3983L20.6071 16.3933C20.6088 15.9635 20.9811 15.6157 21.4419 15.6157H22.9194C23.3818 15.6157 23.7558 15.9652 23.7558 16.3983V18.8814ZM23.1915 4.04125H18.2665C17.8307 4.04125 17.4785 4.37233 17.4785 4.77866V6.16151C17.4785 6.16987 17.4801 6.1799 17.4801 6.18826C17.4801 6.1983 17.4785 6.20833 17.4785 6.21836V8.11288C17.4785 8.54262 17.8524 8.89377 18.3132 8.89377H23.0028C23.3735 8.95229 23.6673 9.22318 23.709 9.64623V10.1044C23.6673 10.5074 23.3768 10.8017 23.0229 10.8351H20.7006C17.612 10.8351 15.4116 12.8902 15.4116 15.7763V19.8044V19.9098C15.4116 22.7791 17.3032 24.8208 20.37 24.8208H26.806C27.9613 24.8208 28.8978 23.9446 28.8978 22.8661V9.37701C28.8978 6.10633 27.215 4.04125 23.1915 4.04125" fill="#999999"/>
</svg>
