<svg width="94" height="25" viewBox="0 0 94 25" fill="none" xmlns="http://www.w3.org/2000/svg">
<path d="M12.5916 0C5.69841 0 0.110596 5.59662 0.110596 12.5C0.110596 19.404 5.69841 25 12.5909 25C19.4835 25 25.0719 19.404 25.0719 12.5C25.0719 5.59662 19.4841 0 12.5916 0Z" fill="#999999"/>
<path d="M18.2981 9.11331V9.5408C18.2981 9.66668 18.2664 9.76078 18.2036 9.82372C18.1407 9.88666 18.0468 9.91844 17.9211 9.91844H17.2665H16.612C16.5392 9.91844 16.4851 9.93775 16.4484 9.97764C16.4123 10.0175 16.3942 10.0773 16.3942 10.1565V15.2421V20.3265C16.3942 20.4524 16.3625 20.5471 16.3003 20.6094C16.2375 20.6723 16.1429 20.7041 16.0172 20.7041H15.4915H14.9663C14.8407 20.7041 14.7461 20.6723 14.6832 20.6094C14.621 20.5471 14.5893 20.453 14.5893 20.3265V18.4888V16.6517H14.5507H14.5109C14.3516 16.9296 14.1202 17.1378 13.8159 17.2774C13.5123 17.4163 13.1359 17.4855 12.6854 17.4855H12.398H12.1105C11.6545 17.4855 11.2438 17.4182 10.8786 17.2842C10.5128 17.1508 10.193 16.9496 9.91857 16.681C9.64419 16.4136 9.43887 16.0958 9.30137 15.7307C9.16449 15.3642 9.09543 14.9492 9.09543 14.4868V12.3213V10.1565C9.09543 10.0842 9.0805 10.0275 9.05063 9.98761C9.02139 9.94773 8.97659 9.92467 8.91686 9.91844H8.34134H7.76645C7.64077 9.91844 7.54682 9.88479 7.48398 9.81873C7.42114 9.75268 7.3894 9.65422 7.3894 9.52086V9.10396V8.68645C7.3894 8.56742 7.42114 8.47769 7.48398 8.41911C7.54682 8.35929 7.64077 8.32937 7.76645 8.32937H10.6876H13.6087C13.1863 7.8888 12.7769 7.42268 12.3812 6.92975C11.9855 6.43621 11.6041 5.91712 11.237 5.36998L10.6814 4.54492L10.127 3.7211C10.1009 3.6756 10.0816 3.627 10.0679 3.57777C10.0548 3.52792 10.0474 3.47682 10.0474 3.42385C10.0474 3.32477 10.0723 3.24999 10.122 3.20013C10.1712 3.1509 10.2458 3.12598 10.3448 3.12598H10.9495H11.5543C11.6731 3.12598 11.7758 3.1509 11.8623 3.20013C11.9481 3.24999 12.0178 3.32477 12.0707 3.42385L13.4887 5.70836L14.9066 7.99225C14.98 8.10504 15.059 8.18979 15.1455 8.24525C15.2314 8.30133 15.3241 8.32937 15.423 8.32937H15.4728H15.5226H16.7221H17.9217C18.0474 8.32937 18.1413 8.35866 18.2042 8.41911C18.267 8.47831 18.2987 8.56742 18.2987 8.68645V9.11331H18.2981Z" fill="white"/>
<path d="M14.3715 9.91748H12.7452H11.1188C11.0454 9.91748 10.9906 9.9368 10.9545 9.97668C10.9184 10.0166 10.9004 10.0764 10.9004 10.1555V12.2319V14.307C10.9004 14.8236 11.0261 15.2106 11.2774 15.4686C11.5288 15.7272 11.9058 15.8562 12.4079 15.8562H12.6755H12.943C13.2211 15.8562 13.4632 15.8207 13.6691 15.7497C13.8757 15.6786 14.0468 15.5714 14.1818 15.4293C14.3174 15.2866 14.4195 15.119 14.4873 14.9258C14.5551 14.7314 14.5893 14.5127 14.5893 14.2678V12.212V10.1562C14.5893 10.077 14.5713 10.0166 14.5346 9.9773C14.4985 9.9368 14.4443 9.91748 14.3715 9.91748Z" fill="#999999"/>
<path d="M33.5861 14.3471V18.4182H31.6819V7.44141H35.875C37.0997 7.44141 38.072 7.76118 38.7918 8.39998C39.5117 9.03877 39.8721 9.88466 39.8721 10.9361C39.8721 12.0135 39.5193 12.851 38.8147 13.4494C38.1092 14.0486 37.1225 14.3479 35.853 14.3479L33.5861 14.3471ZM33.5861 12.8091H35.8743C36.5516 12.8091 37.0685 12.65 37.425 12.3302C37.7808 12.0112 37.9595 11.5498 37.9595 10.9468C37.9595 10.3537 37.7785 9.88009 37.4174 9.52529C37.0564 9.17049 36.5592 8.98852 35.9267 8.97863H33.5854L33.5861 12.8091Z" fill="#999999"/>
<path d="M43.3148 11.1509C43.9123 10.4573 44.6672 10.1101 45.5809 10.1101C47.3172 10.1101 48.1982 11.1029 48.2233 13.0886V18.419H46.3943V13.1563C46.3943 12.5937 46.2727 12.1947 46.0294 11.961C45.7861 11.7272 45.4281 11.61 44.9568 11.61C44.224 11.61 43.6766 11.9366 43.3156 12.5899V18.4174H41.4866V6.83691H43.3156L43.3148 11.1509Z" fill="#999999"/>
<path d="M49.8828 14.2642C49.8828 13.4648 50.0409 12.7453 50.3572 12.1042C50.6734 11.4631 51.1173 10.9705 51.6898 10.6264C52.2622 10.2822 52.919 10.1094 53.6617 10.1094C54.7609 10.1094 55.6526 10.4642 56.3375 11.1723C57.0224 11.8811 57.3926 12.8206 57.4481 13.9916L57.4557 14.4218C57.4557 15.2258 57.3014 15.9446 56.9928 16.578C56.6841 17.2115 56.2425 17.7018 55.6678 18.0482C55.0931 18.3954 54.4294 18.5683 53.6769 18.5683C52.5275 18.5683 51.6077 18.1853 50.9182 17.4186C50.2279 16.6526 49.8828 15.6309 49.8828 14.354V14.2642ZM51.7118 14.4226C51.7118 15.2624 51.8851 15.9194 52.231 16.3945C52.5776 16.8696 53.0588 17.1064 53.6761 17.1064C54.2934 17.1064 54.7738 16.8651 55.1174 16.3824C55.461 15.8996 55.6328 15.1938 55.6328 14.2634C55.6328 13.4389 55.4564 12.7856 55.1022 12.3029C54.748 11.8202 54.2675 11.5788 53.6609 11.5788C53.0634 11.5788 52.5891 11.8164 52.2378 12.2915C51.8866 12.7666 51.7118 13.4777 51.7118 14.4226Z" fill="#999999"/>
<path d="M60.854 10.2611L60.9064 11.2037C61.5085 10.475 62.2991 10.1104 63.2774 10.1104C64.9734 10.1104 65.837 11.0834 65.8674 13.0279V18.4185H64.0384V13.1338C64.0384 12.616 63.9266 12.2331 63.7031 11.9841C63.4796 11.7351 63.1147 11.611 62.6077 11.611C61.8703 11.611 61.3207 11.9453 60.9589 12.6138V18.4193H59.1299V10.2611H60.854Z" fill="#999999"/>
<path d="M71.4712 18.569C70.312 18.569 69.3724 18.2036 68.6525 17.4719C67.9326 16.741 67.5723 15.7672 67.5723 14.5505V14.3244C67.5723 13.5104 67.7289 12.7826 68.0428 12.1415C68.356 11.5004 68.7969 11.0017 69.364 10.6446C69.9311 10.2875 70.5636 10.1094 71.2607 10.1094C72.3698 10.1094 73.2265 10.4642 73.8316 11.1723C74.4367 11.8803 74.7385 12.8838 74.7385 14.1805V14.919H69.4165C69.472 15.5928 69.6962 16.125 70.09 16.5171C70.4838 16.9092 70.9794 17.1049 71.5769 17.1049C72.4146 17.1049 73.0973 16.7661 73.6241 16.0869L74.61 17.0295C74.2839 17.5176 73.8483 17.8952 73.304 18.164C72.7597 18.435 72.1486 18.569 71.4712 18.569ZM71.2531 11.5804C70.7513 11.5804 70.3462 11.7562 70.0375 12.108C69.7289 12.4597 69.532 12.9501 69.4469 13.5782H72.9323V13.4427C72.892 12.8298 72.7293 12.3661 72.4435 12.0516C72.1562 11.7372 71.7593 11.5804 71.2531 11.5804Z" fill="#999999"/>
<path d="M78.3925 14.3471V18.4182H76.4883V7.44141H80.6814C81.9061 7.44141 82.8783 7.76118 83.5982 8.39998C84.3181 9.03877 84.6785 9.88466 84.6785 10.9361C84.6785 12.0135 84.3257 12.851 83.621 13.4494C82.9156 14.0486 81.9289 14.3479 80.6594 14.3479H78.3925V14.3471ZM78.3925 12.8091H80.6807C81.358 12.8091 81.8749 12.65 82.2314 12.3302C82.5872 12.0112 82.7658 11.5498 82.7658 10.9468C82.7658 10.3537 82.5849 9.88009 82.2238 9.52529C81.8627 9.17049 81.3656 8.98852 80.7331 8.97863H78.3918V12.8091H78.3925Z" fill="#999999"/>
<path d="M89.8074 18.569C88.6481 18.569 87.7085 18.2036 86.9887 17.4719C86.2688 16.741 85.9084 15.7672 85.9084 14.5505V14.3244C85.9084 13.5104 86.065 12.7826 86.379 12.1415C86.6922 11.5004 87.1331 11.0017 87.7002 10.6446C88.2673 10.2875 88.8998 10.1094 89.5968 10.1094C90.7059 10.1094 91.5627 10.4642 92.1678 11.1723C92.7729 11.8811 93.0746 12.8838 93.0746 14.1805V14.919H87.7526C87.8081 15.5928 88.0324 16.125 88.4262 16.5171C88.8199 16.9092 89.3156 17.1049 89.9131 17.1049C90.7508 17.1049 91.4334 16.7661 91.9602 16.0869L92.9462 17.0295C92.6201 17.5176 92.1845 17.8952 91.6402 18.164C91.0959 18.435 90.4847 18.569 89.8074 18.569ZM89.5892 11.5804C89.0875 11.5804 88.6823 11.7562 88.3737 12.108C88.0651 12.4597 87.8682 12.9501 87.783 13.5782H91.2685V13.4427C91.2282 12.8298 91.0655 12.3661 90.7797 12.0516C90.4923 11.7372 90.0963 11.5804 89.5892 11.5804Z" fill="#999999"/>
</svg>
