<svg width="71" height="25" viewBox="0 0 71 25" fill="none" xmlns="http://www.w3.org/2000/svg">
<path d="M0.677239 21.4678H1.20601L0.710811 23.5273C0.635273 23.83 0.652059 24.0653 0.752777 24.2166C0.853494 24.368 1.03814 24.4436 1.31512 24.4436C1.5837 24.4436 1.81031 24.368 1.98657 24.2166C2.16282 24.0653 2.28033 23.83 2.35586 23.5273L2.85106 21.4678H3.38822L2.88463 23.5778C2.77552 24.0317 2.58248 24.3764 2.29711 24.6033C2.02014 24.8303 1.65084 24.948 1.19761 24.948C0.744384 24.948 0.433838 24.8387 0.265975 24.6117C0.0981129 24.3848 0.0645405 24.0401 0.173651 23.5862L0.677239 21.4678Z" fill="#999999"/>
<path d="M3.3125 24.8572L4.15181 21.335L5.74651 23.4029C5.78847 23.4618 5.83044 23.5206 5.8724 23.5879C5.91437 23.6551 5.95633 23.7308 6.00669 23.8148L6.56903 21.4695H7.06423L6.22491 24.9833L4.59665 22.8733C4.55468 22.8145 4.51272 22.7556 4.47075 22.6968C4.42879 22.6295 4.39521 22.5707 4.37003 22.495L3.80769 24.8488H3.3125V24.8572Z" fill="#999999"/>
<path d="M7.02246 24.8575L7.8282 21.4697H8.36536L7.55962 24.8575H7.02246Z" fill="#999999"/>
<path d="M8.32349 24.8575L9.12923 21.4697H10.9673L10.8582 21.9405H9.55728L9.35584 22.7811H10.6568L10.5393 23.2603H9.23834L8.86065 24.8491H8.32349V24.8575Z" fill="#999999"/>
<path d="M10.7576 24.8575L11.5633 21.4697H12.1005L11.2947 24.8575H10.7576Z" fill="#999999"/>
<path d="M12.0583 24.8575L12.8641 21.4697H14.7022L14.5931 21.9405H13.2921L13.0907 22.7895H14.3916L14.2741 23.2687H12.9732L12.713 24.3615H14.0139L13.8964 24.8575H12.0583Z" fill="#999999"/>
<path d="M14.5176 24.8575L15.3233 21.4697H16.0451C16.5151 21.4697 16.8425 21.4949 17.0187 21.5454C17.195 21.5958 17.3461 21.6715 17.4636 21.7892C17.6146 21.9405 17.7154 22.1338 17.7573 22.3608C17.7993 22.5962 17.7825 22.8652 17.7154 23.1594C17.6398 23.462 17.5307 23.7226 17.3796 23.958C17.2286 24.1934 17.0355 24.3783 16.8089 24.5296C16.641 24.6473 16.4564 24.723 16.255 24.7734C16.0619 24.8239 15.7682 24.8491 15.3821 24.8491H15.2394H14.5176V24.8575ZM15.1722 24.3531H15.6255C15.8689 24.3531 16.0619 24.3363 16.1962 24.3027C16.3305 24.269 16.448 24.2102 16.5571 24.1345C16.7082 24.0253 16.8341 23.8908 16.9348 23.7226C17.0355 23.5629 17.1111 23.3696 17.1614 23.151C17.2118 22.9324 17.2286 22.7475 17.2034 22.5878C17.1782 22.428 17.1194 22.2851 17.0187 22.1759C16.9432 22.0918 16.8509 22.0414 16.725 22.0077C16.5991 21.9741 16.406 21.9573 16.1291 21.9573H15.936H15.743L15.1722 24.3531Z" fill="#999999"/>
<path d="M20.1829 23.3359L19.8219 24.8575H19.3184L20.1241 21.4697H20.9382C21.1816 21.4697 21.3495 21.4865 21.4586 21.5118C21.5677 21.537 21.6516 21.579 21.7188 21.6463C21.8027 21.7219 21.8615 21.8312 21.8867 21.9657C21.9118 22.1002 21.9034 22.2431 21.8699 22.4028C21.8279 22.5625 21.7691 22.7139 21.6768 22.8484C21.5845 22.9829 21.4754 23.0921 21.3579 23.1678C21.2572 23.2266 21.1481 23.2771 21.0306 23.3023C20.9131 23.3275 20.7284 23.3443 20.4934 23.3443H20.3843H20.1829V23.3359ZM20.3255 22.882H20.4598C20.7536 22.882 20.9634 22.8484 21.0809 22.7811C21.1984 22.7139 21.274 22.5962 21.3159 22.428C21.3579 22.2515 21.3327 22.117 21.2488 22.0498C21.1565 21.9741 20.9718 21.9405 20.6948 21.9405H20.5605L20.3255 22.882Z" fill="#999999"/>
<path d="M23.6913 24.8572L23.5234 23.983H22.2141L21.6265 24.8572H21.0642L23.4982 21.335L24.2536 24.8572H23.6913ZM22.533 23.5206H23.4479L23.2968 22.7472C23.2884 22.6968 23.28 22.6379 23.28 22.5791C23.2716 22.5118 23.2716 22.4446 23.2716 22.3689C23.238 22.4446 23.2045 22.5118 23.1625 22.5791C23.1289 22.6463 23.0953 22.7052 23.0618 22.7556L22.533 23.5206Z" fill="#999999"/>
<path d="M25.0258 24.8574L25.3951 23.3106L24.7236 21.478H25.286L25.7056 22.6297C25.714 22.6633 25.7224 22.6969 25.7392 22.7474C25.756 22.7978 25.7644 22.8483 25.7812 22.8987C25.8147 22.8483 25.8483 22.7978 25.8819 22.7474C25.9155 22.6969 25.949 22.6549 25.9826 22.6129L26.9646 21.478H27.5018L25.9322 23.3022L25.5629 24.849H25.0258V24.8574Z" fill="#999999"/>
<path d="M30.137 23.1844C30.137 23.1591 30.1454 23.0835 30.1622 22.9658C30.1706 22.8649 30.179 22.7893 30.1874 22.722C30.1538 22.7977 30.1202 22.8733 30.0783 22.9574C30.0363 23.033 29.9859 23.1171 29.9272 23.1928L28.6346 25.0001L28.215 23.1591C28.1982 23.0835 28.1814 23.0078 28.173 22.9406C28.1646 22.8733 28.1562 22.7977 28.1562 22.7304C28.1394 22.7977 28.1143 22.8733 28.0891 22.9574C28.0639 23.033 28.0303 23.1171 27.9884 23.2012L27.233 24.8656H26.7378L28.3577 21.335L28.8193 23.4702C28.8277 23.5038 28.8361 23.5626 28.8445 23.6383C28.8529 23.714 28.8696 23.8148 28.8864 23.9325C28.9452 23.8316 29.0207 23.714 29.1214 23.5626C29.1466 23.5206 29.1718 23.4954 29.1802 23.4702L30.6406 21.335L30.5902 24.8656H30.095L30.137 23.1844Z" fill="#999999"/>
<path d="M31.0269 24.8575L31.8326 21.4697H33.6707L33.5616 21.9405H32.2606L32.0592 22.7895H33.3601L33.2426 23.2687H31.9417L31.6815 24.3615H32.9825L32.8649 24.8575H31.0269Z" fill="#999999"/>
<path d="M33.4775 24.8572L34.3169 21.335L35.9115 23.4029C35.9535 23.4618 35.9955 23.5206 36.0374 23.5879C36.0794 23.6551 36.1214 23.7308 36.1717 23.8148L36.7341 21.4695H37.2293L36.39 24.9833L34.7617 22.8733C34.7197 22.8145 34.6778 22.7556 34.6358 22.6968C34.5938 22.6295 34.5603 22.5707 34.5351 22.495L33.9727 24.8488H33.4775V24.8572Z" fill="#999999"/>
<path d="M38.9413 21.9317L38.2447 24.8487H37.7075L38.4041 21.9317H37.5312L37.6404 21.4609H39.9233L39.8142 21.9317H38.9413Z" fill="#999999"/>
<path d="M39.5038 24.1765L39.9822 23.9748C39.9906 24.1261 40.0326 24.2438 40.1249 24.3195C40.2172 24.3951 40.3431 24.4371 40.511 24.4371C40.6704 24.4371 40.8047 24.3951 40.9222 24.3026C41.0397 24.2102 41.1153 24.0925 41.1489 23.9412C41.1992 23.7394 41.0817 23.5629 40.7963 23.4116C40.7544 23.3863 40.7292 23.3695 40.704 23.3611C40.3851 23.1762 40.1836 23.0165 40.0997 22.8652C40.0158 22.7138 39.999 22.5373 40.0494 22.3271C40.1165 22.0497 40.2592 21.8312 40.4858 21.6546C40.7124 21.4865 40.9642 21.394 41.2664 21.394C41.5098 21.394 41.7028 21.4445 41.8455 21.537C41.9882 21.6294 42.0637 21.7723 42.0889 21.9489L41.6189 22.1674C41.5769 22.0581 41.5265 21.9825 41.4594 21.9321C41.3923 21.8816 41.3083 21.8564 41.2076 21.8564C41.0649 21.8564 40.939 21.8984 40.8383 21.9741C40.7376 22.0497 40.6704 22.1506 40.6369 22.2851C40.5865 22.4869 40.7292 22.6802 41.0565 22.8567C41.0817 22.8736 41.0985 22.882 41.1153 22.8904C41.4006 23.0417 41.5937 23.193 41.6776 23.3443C41.7615 23.4956 41.7783 23.6722 41.728 23.8991C41.6524 24.2186 41.493 24.4708 41.2496 24.6641C41.0062 24.8491 40.7208 24.9499 40.3851 24.9499C40.1081 24.9499 39.8899 24.8827 39.7388 24.7482C39.5709 24.6137 39.4954 24.4203 39.5038 24.1765Z" fill="#999999"/>
<path d="M43.457 24.8575L44.2628 21.4697H44.7999L43.9942 24.8575H43.457Z" fill="#999999"/>
<path d="M44.7666 24.8572L45.6059 21.335L47.2006 23.4029C47.2426 23.4618 47.2845 23.5206 47.3265 23.5879C47.3685 23.6551 47.4104 23.7308 47.4608 23.8148L48.0231 21.4695H48.5183L47.679 24.9833L46.0507 22.8733C46.0088 22.8145 45.9668 22.7556 45.9249 22.6968C45.8829 22.6295 45.8493 22.5707 45.8241 22.495L45.2618 24.8488H44.7666V24.8572Z" fill="#999999"/>
<path d="M50.2304 21.9317L49.5337 24.8487H48.9966L49.6932 21.9317H48.8203L48.9294 21.4609H51.2124L51.1032 21.9317H50.2304Z" fill="#999999"/>
<path d="M50.8096 24.8575L51.6153 21.4697H53.4618L53.3527 21.9405H52.0518L51.8503 22.7895H53.1512L53.0337 23.2687H51.7328L51.4726 24.3615H52.7736L52.6561 24.8575H50.8096Z" fill="#999999"/>
<path d="M54.1247 23.3356L53.7638 24.8487H53.2603L54.066 21.4609H54.813C55.0312 21.4609 55.1991 21.4778 55.3082 21.503C55.4257 21.5282 55.518 21.5786 55.5852 21.6459C55.6691 21.7299 55.7194 21.8308 55.7446 21.9653C55.7698 22.0914 55.7614 22.2343 55.7278 22.394C55.6607 22.663 55.5516 22.8816 55.3837 23.0329C55.2159 23.1842 55.006 23.2767 54.7542 23.3103L55.518 24.8487H54.9137L54.1835 23.3356H54.1247V23.3356ZM54.259 22.9068H54.3598C54.6451 22.9068 54.8382 22.8732 54.9473 22.806C55.0564 22.7387 55.1319 22.621 55.1739 22.4445C55.2159 22.2595 55.1991 22.125 55.1151 22.0494C55.0312 21.9737 54.855 21.9317 54.5864 21.9317H54.4857L54.259 22.9068Z" fill="#999999"/>
<path d="M55.8452 24.8575L56.651 21.4697H58.489L58.3799 21.9405H57.079L56.8776 22.7811H58.1785L58.061 23.2603H56.7601L56.3824 24.8491H55.8452V24.8575Z" fill="#999999"/>
<path d="M60.2767 24.8572L60.1088 23.983H58.7995L58.212 24.8572H57.6497L60.0837 21.335L60.839 24.8572H60.2767ZM59.1101 23.5206H60.0249L59.8738 22.7472C59.8654 22.6968 59.857 22.6379 59.857 22.5791C59.8487 22.5118 59.8487 22.4446 59.8487 22.3689C59.8151 22.4446 59.7815 22.5118 59.7395 22.5791C59.706 22.6463 59.6724 22.7052 59.6388 22.7556L59.1101 23.5206Z" fill="#999999"/>
<path d="M64.3309 22.2931C64.2134 22.1586 64.0707 22.0578 63.9196 21.9989C63.7685 21.9317 63.6007 21.898 63.4076 21.898C63.0467 21.898 62.7278 22.0157 62.4424 22.2511C62.1571 22.4865 61.9724 22.7975 61.8801 23.1758C61.7961 23.5373 61.8297 23.8399 61.9976 24.0837C62.1571 24.3191 62.4088 24.4368 62.7446 24.4368C62.9376 24.4368 63.1307 24.4031 63.3237 24.3275C63.5167 24.2602 63.7098 24.1509 63.9112 24.008L63.7601 24.6301C63.5923 24.7394 63.416 24.815 63.2314 24.8655C63.0467 24.9159 62.8621 24.9411 62.6606 24.9411C62.4088 24.9411 62.1822 24.8991 61.9892 24.815C61.7961 24.731 61.6367 24.6049 61.5108 24.4368C61.3849 24.277 61.3093 24.0837 61.2758 23.8651C61.2422 23.6466 61.2506 23.4112 61.3177 23.159C61.3765 22.9068 61.4772 22.6798 61.6115 22.4613C61.7458 22.2427 61.922 22.0494 62.1235 21.8896C62.3249 21.7215 62.5431 21.5954 62.7781 21.5113C63.0132 21.4273 63.2482 21.3853 63.4916 21.3853C63.6846 21.3853 63.8609 21.4105 64.0287 21.4693C64.1882 21.5282 64.3393 21.6122 64.4736 21.7299L64.3309 22.2931Z" fill="#999999"/>
<path d="M64.3811 24.8575L65.1868 21.4697H67.0249L66.9158 21.9405H65.6149L65.4135 22.7895H66.7144L66.5969 23.2687H65.296L65.0358 24.3615H66.3367L66.2192 24.8575H64.3811Z" fill="#999999"/>
<path d="M54.6116 18.5192H50.927L56.0468 0H59.7314L54.6116 18.5192Z" fill="#999999"/>
<path d="M52.6979 0.579892C52.4461 0.226826 52.0517 0.050293 51.5145 0.050293H31.2703L30.2715 3.68183H33.9561H48.686L47.6117 7.55715H32.8818V7.54874H29.1972L26.1421 18.6031H29.8267L31.8746 11.1887H48.4342C48.9546 11.1887 49.4414 11.0122 49.8946 10.6591C50.3479 10.306 50.65 9.86889 50.7927 9.3477L52.8406 1.93331C53.0001 1.37849 52.9497 0.932958 52.6979 0.579892Z" fill="#999999"/>
<path d="M23.9932 17.3575C23.7918 18.0888 23.1203 18.6016 22.3649 18.6016H3.37129C2.85092 18.6016 2.46484 18.4251 2.21304 18.072C1.96125 17.7189 1.9025 17.2818 2.05357 16.7606L6.68658 0.0488281H10.3712L6.23335 14.9785H20.9717L25.1095 0.0488281H28.7941L23.9932 17.3575Z" fill="#999999"/>
<path d="M66.0931 0.0332031L70.7513 9.3138L60.9565 18.5944L66.0931 0.0332031Z" fill="#999999"/>
<path d="M62.82 0.0336914L67.4782 9.31429L57.675 18.5949L62.82 0.0336914Z" fill="#999999"/>
</svg>
