<svg width="103" height="25" viewBox="0 0 103 25" fill="none" xmlns="http://www.w3.org/2000/svg">
<g clip-path="url(#clip0_3566_384)">
<path d="M38.5503 14.4901H38.515L36.581 6.65869H34.2593L32.3015 14.3959H32.2662L30.4741 6.67023H27.9861L30.9812 18.0331H33.4929L35.3794 10.3081H35.4147L37.325 18.0324H39.7892L42.8318 6.67023H40.3894L38.5497 14.4907L38.5503 14.4901ZM50.4125 10.5093C50.1885 10.2132 49.8823 9.98818 49.5049 9.82215C49.1152 9.65613 48.6203 9.57344 48.0304 9.57344C47.6068 9.57344 47.1819 9.67985 46.7338 9.90485C46.2858 10.1183 45.9315 10.4734 45.6368 10.9478H45.59V6.67023H43.3376V18.0331H45.59V13.7202C45.59 12.8786 45.7312 12.2863 46.0027 11.9189C46.2736 11.5516 46.7216 11.3741 47.3353 11.3741C47.8777 11.3741 48.2429 11.5401 48.4554 11.8715C48.6672 12.2036 48.7738 12.7132 48.7738 13.3882V18.0331H51.0255V12.9734C51.0277 12.5083 50.9843 12.0442 50.8958 11.5875C50.7899 11.1606 50.6365 10.8055 50.4125 10.5093ZM59.6686 16.1965V11.9189C59.6686 11.4215 59.5627 11.0189 59.3387 10.7222C59.114 10.4145 58.8316 10.1895 58.4894 10.0113C58.124 9.83872 57.7344 9.72286 57.334 9.66767C56.9199 9.61105 56.5023 9.58341 56.0843 9.58497C55.6362 9.58497 55.176 9.63241 54.7279 9.7151C54.2799 9.80997 53.8794 9.95228 53.5135 10.1657C53.1592 10.3761 52.8571 10.6635 52.6296 11.0068C52.3934 11.3625 52.2637 11.801 52.2284 12.3222H54.4808C54.5277 11.8715 54.6689 11.5638 54.9289 11.3625C55.176 11.1728 55.5303 11.0779 55.9783 11.0779C56.1786 11.0779 56.3673 11.0895 56.5439 11.1132C56.721 11.1369 56.8744 11.1965 57.0041 11.267C57.1338 11.3504 57.2397 11.4568 57.3225 11.5991C57.4046 11.7414 57.4399 11.9311 57.4399 12.1798C57.4521 12.417 57.3815 12.5946 57.2397 12.7132C57.0607 12.8455 56.8557 12.9383 56.6382 12.9856C56.3911 13.0446 56.0958 13.092 55.7652 13.1279C55.4359 13.1632 55.1054 13.1984 54.7639 13.2581C54.4218 13.3055 54.0912 13.3882 53.7613 13.4715C53.4466 13.5571 53.1478 13.693 52.8767 13.8741C52.6174 14.0516 52.4056 14.301 52.24 14.5972C52.075 14.9048 51.9928 15.2843 51.9928 15.7465C51.9928 16.1728 52.0634 16.5401 52.2047 16.8478C52.3459 17.1561 52.5468 17.4055 52.7946 17.6061C53.0423 17.8081 53.3485 17.9619 53.6791 18.0568C54.0363 18.1542 54.4052 18.2018 54.7754 18.1984C55.2825 18.1984 55.7774 18.1279 56.2608 17.9741C56.7448 17.8202 57.1691 17.5702 57.5227 17.192C57.5343 17.3337 57.5465 17.4645 57.5818 17.5946C57.6055 17.7247 57.6408 17.8555 57.6877 17.9856H59.9639C59.8573 17.8196 59.7867 17.5587 59.7392 17.2273C59.6901 16.8859 59.6665 16.5414 59.6686 16.1965V16.1965ZM57.4284 14.8459C57.4284 14.976 57.4168 15.142 57.3931 15.3548C57.3675 15.5768 57.2953 15.7908 57.1813 15.9831C57.0631 16.1843 56.886 16.3625 56.6382 16.5164C56.3911 16.6702 56.049 16.7414 55.6125 16.7414C55.4359 16.7414 55.2588 16.7298 55.0938 16.6939C54.9358 16.6657 54.784 16.6094 54.6458 16.5279C54.5176 16.4446 54.4121 16.3307 54.339 16.1965C54.2641 16.0373 54.2279 15.8627 54.233 15.6869C54.233 15.4734 54.2683 15.2959 54.339 15.1657C54.4096 15.0234 54.5161 14.917 54.6342 14.8222C54.7597 14.7234 54.9038 14.6508 55.0579 14.6087C55.2235 14.5613 55.3884 14.5138 55.5534 14.4786C55.7306 14.4427 55.9071 14.4189 56.0958 14.3952C56.273 14.3715 56.4495 14.3478 56.6151 14.3125C56.7801 14.2773 56.9328 14.242 57.0747 14.1939C57.2049 14.1511 57.3251 14.0827 57.4284 13.9927V14.8452V14.8459ZM63.8666 7.33369H61.6142V9.79844H60.2585V11.3151H61.6142V16.1613C61.6142 16.5754 61.6848 16.9074 61.8151 17.1677C61.949 17.4109 62.1438 17.6152 62.3806 17.7606C62.6168 17.9023 62.8877 17.985 63.206 18.0331C63.5129 18.0805 63.8428 18.1036 64.1965 18.1036C64.4205 18.1036 64.6445 18.1036 64.8807 18.092C65.1163 18.0805 65.3288 18.0568 65.5175 18.0331V16.2792C65.4084 16.3016 65.298 16.3175 65.1869 16.3266C65.0695 16.3388 64.9514 16.3388 64.8217 16.3388C64.4443 16.3388 64.1849 16.2792 64.0668 16.1491C63.9372 16.0189 63.8781 15.7696 63.8781 15.3907V11.3151H65.5291V9.79844H63.8781V7.33305H63.8666V7.33369ZM73.1579 14.4189C73.0102 14.1624 72.8093 13.9404 72.5687 13.7677C72.3157 13.5862 72.0376 13.4424 71.7432 13.3407C71.429 13.236 71.1103 13.1451 70.7881 13.0683C70.4697 12.9978 70.1629 12.926 69.8567 12.867C69.5805 12.8158 69.3085 12.7444 69.0428 12.6536C68.8072 12.5702 68.6185 12.476 68.4651 12.3459C68.3921 12.2855 68.334 12.2092 68.2951 12.1228C68.2563 12.0365 68.2378 11.9424 68.241 11.8478C68.241 11.6824 68.2764 11.5401 68.3707 11.4452C68.4541 11.3475 68.5592 11.2704 68.6775 11.2202C68.795 11.1728 68.9369 11.1369 69.0781 11.1132C69.2315 11.1016 69.3612 11.0895 69.4908 11.0895C69.892 11.0895 70.2457 11.1606 70.5403 11.3151C70.8349 11.4689 71.0005 11.7651 71.0358 12.1914H73.1701C73.1226 11.6824 72.993 11.2677 72.7805 10.9241C72.5749 10.5967 72.2967 10.321 71.9672 10.1183C71.6227 9.90968 71.2432 9.76504 70.8471 9.69138C70.4239 9.6059 69.9932 9.56231 69.5614 9.56126C69.1134 9.56126 68.6891 9.59715 68.2648 9.67985C67.8399 9.76318 67.4631 9.89331 67.1209 10.0946C66.7835 10.2872 66.5028 10.5651 66.307 10.9004C66.1068 11.2439 66.0008 11.6702 66.0008 12.2036C66.0008 12.5587 66.0715 12.867 66.2249 13.1157C66.3661 13.3645 66.567 13.5664 66.8141 13.7318C67.0619 13.8984 67.3334 14.0279 67.6518 14.135C67.958 14.2414 68.2764 14.3247 68.6069 14.3952C69.4086 14.5619 70.0332 14.7388 70.4813 14.9048C70.9293 15.0709 71.1533 15.3318 71.1533 15.6632C71.1533 15.8645 71.1065 16.0305 71.0121 16.1606C70.9177 16.2914 70.7996 16.3978 70.6584 16.4811C70.5113 16.5643 70.3521 16.6242 70.1866 16.6587C70.024 16.6944 69.8582 16.7142 69.6917 16.7177C69.4671 16.7177 69.2552 16.6939 69.055 16.6343C68.8586 16.591 68.6737 16.5065 68.5126 16.3863C68.3536 16.2734 68.2208 16.1278 68.1229 15.9593C68.0199 15.7661 67.9674 15.55 67.9702 15.3311H65.8359C65.859 15.8888 65.9771 16.3388 66.2127 16.7061C66.4312 17.0655 66.7299 17.3696 67.0856 17.5946C67.4393 17.8196 67.8399 17.9734 68.3001 18.0689C68.7578 18.1642 69.2242 18.2116 69.6917 18.2106C70.1513 18.2106 70.6109 18.1632 71.0589 18.0805C71.507 17.9856 71.9082 17.8318 72.2503 17.6061C72.604 17.3818 72.8749 17.085 73.0989 16.7298C73.3114 16.3625 73.4173 15.9119 73.4173 15.367C73.3704 14.9997 73.2998 14.6798 73.1579 14.4189V14.4189ZM77.6152 6.67023L73.3467 18.0331H75.8468L76.7307 15.5093H80.9524L81.801 18.0331H84.3833L80.1623 6.67023H77.6152V6.67023ZM77.3797 13.6369L78.8534 9.46638H78.8887L80.3157 13.6369H77.3797V13.6369ZM92.1656 10.9125C91.8548 10.5096 91.4607 10.1781 91.0102 9.94074C90.5506 9.69138 89.996 9.57344 89.3477 9.57344C88.8406 9.57344 88.3804 9.66767 87.9561 9.86959C87.5318 10.0709 87.1897 10.3907 86.9066 10.8407H86.8713V9.78626H84.737V20.8888H86.9894V16.9901H87.0247C87.285 17.384 87.6478 17.6996 88.0742 17.9029C88.4985 18.1042 88.9703 18.2106 89.4774 18.2106C90.0788 18.2106 90.609 18.092 91.0571 17.8555C91.4954 17.6302 91.8782 17.3106 92.1778 16.9196C92.484 16.5286 92.6965 16.0779 92.8499 15.5683C92.9911 15.0587 93.0739 14.526 93.0739 13.9805C93.077 13.4122 93.0016 12.8462 92.8499 12.2984C92.7014 11.8011 92.4701 11.3324 92.1656 10.9119V10.9125ZM90.7156 14.9048C90.6616 15.2005 90.5492 15.4825 90.385 15.7343C90.2323 15.9715 90.0314 16.1728 89.7836 16.3151C89.5365 16.4689 89.2296 16.5395 88.8644 16.5395C88.5107 16.5395 88.2039 16.4689 87.9446 16.3151C87.6945 16.1761 87.4837 15.9764 87.3315 15.7343C87.1781 15.4972 87.0716 15.2132 87.001 14.9048C86.9303 14.586 86.8948 14.2603 86.8951 13.9337C86.8951 13.5901 86.9304 13.2696 86.9894 12.9497C87.0485 12.6298 87.1659 12.3459 87.3194 12.1087C87.4728 11.86 87.673 11.6702 87.9208 11.5164C88.1686 11.3625 88.4748 11.2792 88.8406 11.2792C89.1943 11.2792 89.5011 11.3625 89.7483 11.5164C89.996 11.6702 90.1963 11.8715 90.3619 12.1202C90.5147 12.3696 90.6328 12.6536 90.7034 12.9734C90.7747 13.2939 90.81 13.6132 90.81 13.9452C90.81 14.2651 90.7862 14.585 90.7156 14.9048V14.9048ZM101.799 12.3215C101.646 11.7888 101.422 11.3151 101.116 10.9119C100.804 10.5093 100.41 10.1781 99.9601 9.94074C99.4999 9.69138 98.9459 9.57344 98.297 9.57344C97.7899 9.57344 97.3303 9.66767 96.906 9.86959C96.4811 10.0709 96.1396 10.3907 95.8565 10.8407H95.8212V9.78626H93.6869V20.8888H95.9387V16.9901H95.9746C96.2346 17.384 96.5973 17.6995 97.0235 17.9029C97.4623 18.1088 97.9418 18.2139 98.4267 18.2106C99.0281 18.2106 99.5474 18.092 100.007 17.8555C100.445 17.6304 100.828 17.3107 101.127 16.9196C101.439 16.5184 101.668 16.059 101.799 15.5683C101.951 15.0528 102.027 14.5178 102.023 13.9805C102.023 13.4119 101.941 12.8555 101.799 12.3222V12.3215ZM99.6771 14.9048C99.6216 15.1982 99.5137 15.4791 99.3587 15.7343C99.2053 15.9715 99.005 16.1728 98.7572 16.3151C98.5095 16.4689 98.2026 16.5395 97.8374 16.5395C97.4837 16.5395 97.1769 16.4689 96.9176 16.3151C96.6677 16.176 96.4569 15.9762 96.3046 15.7343C96.1511 15.4972 96.0452 15.2132 95.9746 14.9048C95.9034 14.586 95.8677 14.2603 95.8681 13.9337C95.8681 13.5901 95.9034 13.2696 95.9624 12.9497C96.0165 12.6505 96.1288 12.3648 96.293 12.1087C96.4458 11.86 96.6467 11.6702 96.8938 11.5164C97.1416 11.3625 97.4484 11.2792 97.8258 11.2792C98.1795 11.2792 98.4857 11.3625 98.7335 11.5164C98.9812 11.6702 99.1815 11.8715 99.3465 12.1202C99.4999 12.3696 99.618 12.6536 99.6886 12.9734C99.7592 13.2939 99.7945 13.6132 99.7945 13.9452C99.7714 14.2651 99.7355 14.585 99.6771 14.9048V14.9048Z" fill="#999999"/>
<path d="M0.923828 24.1115L2.57477 18.0808C1.55976 16.3095 1.02728 14.3036 1.03038 12.2628C1.01819 5.82949 6.21815 0.604492 12.6095 0.604492C15.7104 0.604492 18.6227 1.81283 20.8161 4.01667C23.0094 6.22052 24.2117 9.1468 24.2117 12.2628C24.2117 18.6846 19.0123 23.9103 12.621 23.9103C10.6831 23.9128 8.77629 23.4235 7.07957 22.4885L0.923828 24.1115V24.1115ZM7.35109 20.391L7.70477 20.6045C9.18846 21.4872 10.8831 21.9538 12.6101 21.9551C17.916 21.9551 22.2436 17.6064 22.2436 12.275C22.2436 9.69167 21.2416 7.25129 19.4257 5.42629C17.6085 3.60257 15.1796 2.58334 12.6088 2.58334C7.29075 2.58334 2.96312 6.93206 2.96312 12.2635C2.96312 14.0885 3.47021 15.8776 4.43754 17.4173L4.66156 17.7853L3.68268 21.3635L7.34981 20.3917L7.35109 20.391Z" fill="#F9F9F9"/>
<path d="M1.3252 23.7086L2.91709 17.8798C1.93549 16.1702 1.41919 14.2338 1.41955 12.2631C1.41955 6.06697 6.443 1.01953 12.6097 1.01953C15.6047 1.01953 18.4111 2.19261 20.5332 4.31312C21.576 5.35802 22.4024 6.59801 22.9649 7.96216C23.5274 9.32631 23.815 10.7878 23.8113 12.2631C23.8113 18.4599 18.7885 23.5074 12.6212 23.5074C10.7469 23.5074 8.90722 23.033 7.26783 22.133L1.3252 23.7086V23.7086Z" fill="#999999"/>
<path d="M0.923828 24.1115L2.57477 18.0808C1.55976 16.3095 1.02728 14.3036 1.03038 12.2628C1.01819 5.82949 6.21815 0.604492 12.6095 0.604492C15.7104 0.604492 18.6227 1.81283 20.8161 4.01667C23.0094 6.22052 24.2117 9.1468 24.2117 12.2628C24.2117 18.6846 19.0123 23.9103 12.621 23.9103C10.6831 23.9128 8.77629 23.4235 7.07957 22.4885L0.923828 24.1115V24.1115ZM7.35109 20.391L7.70477 20.6045C9.18846 21.4872 10.8831 21.9538 12.6101 21.9551C17.916 21.9551 22.2436 17.6064 22.2436 12.275C22.2436 9.69167 21.2416 7.25129 19.4257 5.42629C17.6085 3.60257 15.1796 2.58334 12.6088 2.58334C7.29075 2.58334 2.96312 6.93206 2.96312 12.2635C2.96312 14.0885 3.47021 15.8776 4.43754 17.4173L4.66156 17.7853L3.68268 21.3635L7.34981 20.3917L7.35109 20.391Z" fill="#F9F9F9"/>
<path fill-rule="evenodd" clip-rule="evenodd" d="M9.72024 7.3812C9.50842 6.8953 9.2722 6.88376 9.07193 6.88376C8.89477 6.87158 8.70606 6.87158 8.50579 6.87158C8.31707 6.87158 7.99869 6.94274 7.72781 7.23889C7.45629 7.53504 6.71362 8.2344 6.71362 9.66838C6.71362 11.1017 7.75156 12.4882 7.89278 12.6774C8.03399 12.8671 9.89741 15.9004 12.845 17.0735C15.2976 18.0447 15.7932 17.8556 16.324 17.7959C16.8542 17.737 18.0334 17.0972 18.2812 16.4094C18.5167 15.7344 18.5167 15.1421 18.4461 15.0235C18.3755 14.9049 18.1746 14.8338 17.8915 14.6799C17.5969 14.5376 16.1822 13.8274 15.9106 13.7318C15.6398 13.637 15.4511 13.5895 15.2623 13.8741C15.0736 14.1703 14.5197 14.8222 14.3425 15.0113C14.1775 15.2011 14.001 15.2248 13.7179 15.0825C13.4227 14.9408 12.4919 14.6325 11.3827 13.637C10.5226 12.8671 9.94491 11.9075 9.76774 11.6229C9.60278 11.3267 9.74399 11.1729 9.89741 11.0306C10.0271 10.9004 10.1927 10.687 10.3339 10.5209C10.4751 10.3549 10.522 10.2248 10.6285 10.035C10.7229 9.84594 10.6754 9.66774 10.6048 9.52607C10.5342 9.3953 9.97957 7.96197 9.72024 7.3812V7.3812Z" fill="#F9F9F9"/>
</g>
<defs>
<clipPath id="clip0_3566_384">
<rect width="102.703" height="25" fill="white" transform="translate(0.110596)"/>
</clipPath>
</defs>
</svg>
